<?xml version="1.0" encoding="UTF-8"?>
<svg width="1440px" height="888px" viewBox="0 0 1440 888" version="1.1" xmlns="http://www.w3.org/2000/svg" xmlns:xlink="http://www.w3.org/1999/xlink">
    <title>Scene Living Room</title>
    <g id="Scene-Living-Room" stroke="none" stroke-width="1" fill="none" fill-rule="evenodd">
        <g id="Scene/Home" transform="translate(218.000000, 48.000000)">
            <g id="Clock" transform="translate(709.348649, 107.729412)">
                <circle id="Clock-Frame" fill="#F2F2F2" cx="53" cy="53" r="53"></circle>
                <circle id="Time" fill-opacity="0.1" fill="#000000" cx="53" cy="11" r="3"></circle>
                <circle id="Time" fill-opacity="0.1" fill="#000000" cx="11" cy="53" r="3"></circle>
                <circle id="Time" fill-opacity="0.1" fill="#000000" cx="95" cy="53" r="3"></circle>
                <circle id="Time" fill-opacity="0.1" fill="#000000" cx="53" cy="95" r="3"></circle>
                <polygon id="Hand" fill="#AFB9C5" points="53 17 55 52 51 52"></polygon>
                <polygon id="Hand" fill="#AFB9C5" transform="translate(62.213203, 62.213203) rotate(135.000000) translate(-62.213203, -62.213203) " points="62.2132034 50.2132034 64.2132034 74.2132034 60.2132034 74.2132034"></polygon>
                <circle id="Time" fill="#C5CFD6" cx="53" cy="53" r="4"></circle>
            </g>
            <g id="Background-Shape-2" opacity="0.345889137" transform="translate(39.620270, 284.188235)">
                <path d="M0.314656077,200.777658 C10.8287585,111.038582 574.955113,-62.1672887 679.683204,22.8317905 C784.411296,107.83087 683.728225,267.351906 464.256829,308.201184 C244.785433,349.050462 -10.1994463,290.516733 0.314656077,200.777658 Z" id="Background-Shape" fill="#F2F2F2" transform="translate(360.647297, 160.729412) scale(-1, 1) translate(-360.647297, -160.729412) "></path>
                <path d="M244.226969,259.086122 C253.936394,182.849266 774.88839,35.7041032 871.601312,107.914146 C968.314234,180.124189 943.834307,332.009648 741.159745,366.712708 C538.485182,401.415768 234.517543,335.322978 244.226969,259.086122 Z" id="Background-Shape" fill="#DDE3E9"></path>
            </g>
            <g id="Hanging-Lamp" transform="translate(52.283108, 0.000000)">
                <g id="Light" transform="translate(0.000000, 187.261705)">
                    <ellipse id="Hanging-Lamp-Light" fill="#F2F2F2" cx="49.5" cy="34.5" rx="42.5" ry="22.5"></ellipse>
                    <path d="M99,50 C99,22.3857625 76.8380951,0 49.5,0 C22.1619049,0 -7.10542736e-15,22.3857625 -7.10542736e-15,50" id="Hanging-Lamp" fill="#DDE3E9"></path>
                </g>
                <rect id="Wire" fill="#DDE3E9" x="47" y="0" width="5" height="194.588235"></rect>
            </g>
            <g id="Hanging-Lamp" opacity="0.7" transform="translate(170.664865, 0.000000)">
                <g id="Light" transform="translate(0.000000, 139.188235)">
                    <ellipse id="Hanging-Lamp-Light" fill="#F2F2F2" cx="37" cy="27.8421053" rx="31.7676768" ry="18.1578947"></ellipse>
                    <path d="M74,40.3508772 C74,18.0657031 57.4345357,0 37,0 C16.5654643,0 -7.10542736e-15,18.0657031 -7.10542736e-15,40.3508772" id="Hanging-Lamp" fill="#DDE3E9"></path>
                </g>
                <rect id="Wire" fill="#DDE3E9" x="35" y="0" width="5" height="162.188235"></rect>
            </g>
            <g id="Lamp" transform="translate(715.897297, 234.354098)">
                <path d="M60,40.8887657 L97.9999223,15.05728 C100.714347,13.212076 104.280444,13.212076 106.994868,15.05728 L200.350351,78.518221 C204.732306,81.4969748 207.355405,86.4518769 207.355405,91.7504149 L207.355405,481.645902 L207.355405,481.645902" id="Body" stroke="#CBCBCB" stroke-width="8"></path>
                <rect id="Lamp-Base" fill="#AFB9C5" x="177.355405" y="480.645902" width="59" height="7" rx="3"></rect>
                <g id="Lamp-Top" transform="translate(48.083261, 49.083261) rotate(45.000000) translate(-48.083261, -49.083261) translate(14.583261, 14.583261)">
                    <path d="M33.0303119,1.38390164 C51.2557087,1.38390164 66.0303119,16.1585049 66.0303119,34.3839016 L66.0303119,62.3839016 L66.0303119,62.3839016 L0.03031192,62.3839016 L0.03031192,34.3839016 C0.03031192,16.1585049 14.8049152,1.38390164 33.0303119,1.38390164 Z" id="Lamp" fill="#C5CFD6"></path>
                    <ellipse id="Lamp" fill="#F2F2F2" cx="33.2089288" cy="61.4454002" rx="33" ry="6.5"></ellipse>
                </g>
            </g>
            <g id="Big-Leaf-Plant" transform="translate(46.762162, 483.000000)">
                <g id="Big-Ass-Leaf" transform="translate(22.000000, 0.000000)">
                    <path d="M25.2579539,1.17309307 C28.1225306,0.823121436 31.1799041,0.946659994 33.8438766,2.07736611 C39.5085416,4.48200834 41.1187317,11.1741436 41.0410516,16.6135182 C40.9573065,22.4680411 39.714051,28.8626602 44.1651162,33.5797909 C46.2111822,35.7484553 48.7563294,37.4081152 50.7654292,39.6166003 C52.9121851,41.9766643 54.5966293,44.6770468 55.8438343,47.5768289 C58.1338507,52.9031791 59.2578307,59.1668975 57.163736,64.7542738 C55.3199224,69.6736307 50.6810935,74.1137719 51.6834319,79.7075568 C52.728959,85.5429164 58.61221,90.0040977 62.290444,94.3505245 C66.4531656,99.2693182 70.2859018,105.555987 70.9155339,112.006469 C71.5192882,118.188324 68.8284074,124.440381 64.698769,129.113358 C56.447741,138.450738 44.0451661,143.028231 31.539564,143 C26.2300259,142.987569 20.2185507,142.747768 15.6365623,139.894514 C14.2204324,139.012594 13.4733329,138.02316 12.6314834,136.647706 C11.8766749,135.414323 10.8795787,134.61206 9.72545995,133.739319 C7.18986484,131.822394 5.35871537,129.238844 4.19012177,126.346829 C-0.347779789,115.114023 3.27916675,101.217665 9.6312018,91.2428455 C11.1363537,88.8796069 12.3686453,86.6054629 11.6374364,83.7886216 C10.8743978,80.8481806 8.99901449,78.1960629 7.34025921,75.6685039 C5.70114537,73.1704875 3.82987864,70.7874137 2.54875756,68.0865102 C1.20699289,65.2571214 0.829162714,62.2942757 1.0662375,59.1977452 C1.51180331,53.3811147 4.02273241,48.0134805 7.57766153,43.3356252 C11.0017161,38.8298272 15.0221277,34.5184764 15.0311362,28.6145236 C15.0410288,22.3571379 10.8577315,16.7908073 12.6398779,10.4289791 C13.3778032,7.79466143 14.8599543,5.09183557 17.2485499,3.51252303 C19.5392578,1.99784616 22.5638536,1.50223723 25.2579539,1.17309307 Z" id="leaf" fill="#DDE3E9"></path>
                    <path d="M23.3861597,11.1764309 C23.4398778,10.3360403 24.436749,9.83200515 25.2215077,10.0513011 C26.2544664,10.3400972 26.2346007,11.3052716 26.2073293,12.1651664 C26.1237304,14.8082784 26.5062963,17.3769517 27.1416559,19.9415199 C28.4621824,25.2735426 30.9026929,30.1861254 32.8361895,35.3079558 C34.7680009,40.4254986 35.6748339,45.7092068 34.5415523,51.1242976 C33.4732058,56.2299732 31.7948008,61.2033156 30.7014513,66.3154357 C29.7377524,70.8211129 28.7123306,75.5726024 30.1799208,80.0668063 C31.5921035,84.3928044 34.714245,87.9158566 36.9624576,91.8252937 C41.6165172,99.9180775 43.681267,108.896054 43.9574365,118.135184 C44.0854233,122.425481 43.970168,126.755229 42.9748682,130.963076 C42.4020068,133.385966 41.6321776,136.660394 39.5559237,138.333163 C38.5985099,139.104565 36.9610282,139.371304 36.1552196,138.228946 C35.3986826,137.157504 36.0623713,135.498805 36.3025457,134.356816 C37.3426754,129.413332 37.551926,124.361287 37.302904,119.341696 C37.061891,114.479563 36.4874289,109.625549 34.9571817,104.98201 C33.536907,100.672738 31.379247,96.8021749 28.8398113,93.0324782 C26.2521442,89.1908938 23.562037,85.3411131 22.4928221,80.7892312 C21.4064684,76.1661343 22.2890218,71.4619848 23.4691168,66.9271792 C24.717096,62.1306341 26.3517536,57.4716876 28.0416981,52.8051023 C29.688607,48.2578629 30.2723555,43.9553657 29.3631928,39.1961513 C27.5671855,29.7935298 22.7598022,20.9681166 23.3861597,11.1764309 Z" id="middle-thing" fill="#C5CFD6"></path>
                </g>
                <g id="Big-Ass-Leaf" transform="translate(32.000000, 11.000000)">
                    <path d="M90.8923323,1.58227349 C94.4371815,2.65860484 97.957883,4.39521888 100.484813,7.11827966 C105.857908,12.908958 104.209295,21.6609092 101.243138,28.053245 C98.0504357,34.9333908 93.2122671,41.8490652 95.9396345,49.7432112 C97.193196,53.3723397 99.3011711,56.6591395 100.490327,60.3161304 C101.760821,64.2239944 102.30919,68.2938229 102.239325,72.3720051 C102.109984,79.8624039 100.11754,87.8547607 94.7080978,93.373143 C89.9453006,98.2317101 82.1575199,101.069515 80.3765031,108.20631 C78.5184553,115.651265 83.0609213,123.987774 85.0777737,131.041472 C87.360351,139.024107 88.5328812,148.452761 85.8618992,156.408818 C83.3025511,164.033728 76.8418128,170.027718 69.5281945,173.405772 C54.9151643,180.156033 37.9486721,179.117398 23.2958182,172.578162 C17.0747521,169.801475 10.1506305,166.390577 6.28452896,160.632591 C5.08969654,158.852907 4.73639937,157.294118 4.47600508,155.229521 C4.2426077,153.378223 3.49715739,151.910733 2.60478713,150.278208 C0.643995898,146.69213 -0.138196518,142.68415 0.0197662548,138.65605 C0.634485801,123.011122 12.2336238,108.463743 24.9562471,99.9717321 C27.9707605,97.9599181 30.6181436,95.9115216 31.2493822,92.1998602 C31.9086177,88.325468 31.1107853,84.2133878 30.5011993,80.3613088 C29.8990358,76.5543855 28.9638254,72.7626253 28.8887906,68.9019982 C28.8105393,64.857873 29.9334288,61.1573785 31.8482022,57.6186721 C35.4452563,50.9715661 41.2274568,45.9299031 47.869576,42.2471027 C54.2672493,38.6996981 61.2616135,35.6924899 64.392784,28.7150074 C67.7118026,21.3200057 65.7473551,12.5608727 71.200258,5.96432077 C73.4581719,3.232793 76.6252004,0.8074086 80.2615533,0.182273212 C83.7489295,-0.417345716 87.5584437,0.569996664 90.8923323,1.58227349 Z" id="leaf" fill="#DDE3E9"></path>
                    <path d="M83.6512541,13.8108813 C84.1542014,12.8438162 85.5838278,12.76941 86.3866021,13.4404234 C87.4431996,14.3238303 86.9144837,15.4564117 86.4322458,16.4604357 C84.9502268,19.5466855 84.0522837,22.7891134 83.4520845,26.1591764 C82.2036693,33.1656731 82.4845328,40.2624713 82.0629519,47.3413268 C81.6416462,54.4142215 79.9347993,61.1466733 75.7736201,66.9654284 C71.8504189,72.4517974 67.2831774,77.4617029 63.3273648,82.942599 C59.8407636,87.7732777 56.1532511,92.8627051 55.5155862,98.9541078 C54.9012266,104.817274 56.7068601,110.625805 57.2882412,116.433853 C58.4918732,128.456945 56.2042044,140.171178 51.6883608,151.25723 C49.5910773,156.405033 47.1887071,161.472065 43.8211358,165.93348 C41.8823541,168.502498 39.2672836,171.9767 35.9634293,172.869426 C34.4399139,173.281139 32.3854941,172.738768 32.0415379,170.963598 C31.7180544,169.298235 33.362815,167.681804 34.2417421,166.455303 C38.0470052,161.146218 40.9375702,155.273083 43.2752764,149.198186 C45.5398829,143.313954 47.4103318,137.264567 48.0529422,130.963476 C48.6490797,125.115876 48.1532232,119.401324 47.1581268,113.606123 C46.1442823,107.70051 45.0149464,101.731498 46.1486425,95.7805914 C47.2995951,89.7363667 50.7952573,84.6281193 54.5501475,79.8763654 C58.5214952,74.8502305 62.8729252,70.1897143 67.2930034,65.5491295 C71.6002552,61.0273221 74.5361665,56.238113 75.9655983,50.1255641 C78.7899076,38.049307 77.7906897,25.0782485 83.6512541,13.8108813 Z" id="middle-thing" fill="#C5CFD6"></path>
                </g>
                <g id="Big-Ass-Leaf" transform="translate(0.000000, 57.000000)">
                    <path d="M13.3059765,-1.56319402e-13 C19.200266,-1.56319402e-13 24.3823319,3.12436119 27.9530894,7.55793367 C32.133,12.74806 32.977213,19.0862362 34.674537,25.2719426 C35.5191207,28.3503093 36.9717453,31.4062221 39.5173606,33.4977007 C41.832736,35.3997692 44.7720948,35.7804002 47.5435009,36.7097048 C53.0822347,38.5668654 57.5546724,43.0406377 59.3209572,48.4994874 C61.4757949,55.1581758 59.1934169,61.8733613 59.5864189,68.6215035 C59.9471652,74.818799 66.0576058,78.6852277 70.9738392,81.6560327 C75.8214826,84.5855514 80.1886254,87.3278329 81.6486651,93.0347628 C83.196945,99.0875562 83.7163751,105.843666 81.5719185,111.822941 C78.0015318,121.778741 67.5524967,126.162697 57.4560511,126.842473 C48.2931709,127.459233 36.7719075,126.490815 29.8906637,119.839732 C25.7730402,115.859585 24.2818569,110.293173 24.4668644,104.75501 C24.581799,101.311223 25.2639913,97.8993066 26.1460214,94.571411 C26.7711171,92.2126578 27.6157008,89.864045 27.8563219,87.4267028 C28.4958771,80.9422138 22.5025956,79.6967428 17.4009839,77.9163603 C10.9183036,75.6535796 6.37987122,71.3797201 3.22399048,65.4254344 C0.285002382,59.8814769 -0.948134291,53.6581058 0.813701389,47.5542477 C1.71352782,44.4374919 3.34559866,41.6097404 5.55901596,39.2046306 C6.53336448,38.1460346 7.90664718,37.2630865 8.78608199,36.1508907 C9.60693725,35.1122136 9.42823254,33.766424 9.1453452,32.5499259 C7.83731568,26.930639 3.7619584,22.2775971 2.30451394,16.6684507 C0.988698535,11.6054427 1.76654602,5.30420703 6.395443,2.0378788 C8.39530446,0.626538178 10.8615778,0.0155729143 13.3059765,-1.56319402e-13 Z" id="leaf" fill="#C5CFD6"></path>
                    <path d="M21.3376913,14.6413767 C27.5850069,21.2960229 29.2831027,30.3249745 29.7814609,39.0761511 C30.0606151,43.9833868 29.7700594,49.1593434 31.2118042,53.919181 C32.4453787,57.993092 35.3373275,61.1072854 38.3182819,64.0505403 C44.3188091,69.9754389 51.0107852,75.9988444 52.7658888,84.5736503 C53.7957065,89.6058303 53.1005796,94.8035164 54.523567,99.7802864 C55.8174594,104.303997 58.0955633,108.748395 60.8665085,112.568434 C63.097535,115.644601 66.0041955,117.999712 68.4430245,120.867276 C69.1870678,121.742611 70.2529291,123.031168 69.9458228,124.266849 C69.5864899,125.714031 67.7431162,126.172161 66.4352477,125.944726 C63.385884,125.414889 60.8190633,122.503142 58.8252627,120.38633 C55.9097752,117.290969 53.432328,113.961654 51.4186666,110.227085 C49.1832266,106.079656 47.3832523,101.678717 46.6141992,97.0257156 C45.8160904,92.1985167 46.2133058,87.1677853 44.3908963,82.535065 C41.3242463,74.7399845 33.8860201,70.1398585 28.5081649,64.0643023 C21.8077295,56.4937595 22.8070205,47.0715048 23.4933204,37.7589838 C23.8703073,32.6413346 24.2450873,26.8620233 21.6591415,22.1894658 C20.6719877,20.4058395 18.4711201,18.7428117 18.0466881,16.7154534 C17.6579319,14.857947 19.7797242,12.9808841 21.3376913,14.6413767 Z" id="middle-thing" fill="#AFB9C5"></path>
                </g>
                <path d="M28,181 C28,219.05849 34.211229,239 67.0000931,239 C99.7889571,239 106,219.05849 106,181 L28,181 Z" id="Base" fill="#89C5CC"></path>
            </g>
            <g id="Table" transform="translate(207.327703, 465.000000)">
                <g id="Lamp" transform="translate(23.000000, 0.000000)">
                    <rect id="Lamp-Base" fill="#AFB9C5" x="21" y="144" width="38" height="9" rx="2"></rect>
                    <path d="M38.2168511,71 L42.7831489,71 C43.3012374,86.4188034 45.7068545,101.08547 50,115 L56.5,115 C65.0604136,115 72,121.939586 72,130.5 C72,139.060414 65.0604136,146 56.5,146 L23.5,146 C14.9395864,146 8,139.060414 8,130.5 C8,121.939586 14.9395864,115 23.5,115 L31,115 C35.2931455,101.08547 37.6987626,86.4188034 38.2168511,71 Z" id="Lamp-Body" fill="#DDE3E9"></path>
                    <path d="M4.62222222,1.67861504 C16.0814815,0.559538347 27.5407407,0 39,0 C50.4592593,0 61.9185185,0.559538347 73.3777778,1.67861504 L78,81.1330604 C65,82.3776868 52,83 39,83 C26,83 13,82.3776868 0,81.1330604 L4.62222222,1.67861504 Z" id="Shade" fill="#C5CFD6"></path>
                </g>
                <path d="M125,257 L104,257 L104,175 L21,175 L21,257 L0,257 L0,153 L125,153 L125,257 Z" fill="#F2F2F2"></path>
            </g>
            <g id="Plant" transform="translate(753.983108, 440.000000)">
                <g id="Succulents" transform="translate(13.000000, 0.000000)">
                    <path d="M3.38092413,0.208187006 C12.213925,21.197225 27.2292006,35.7805339 35.1818951,57.6048833 C39.8977667,70.5473636 41.863552,84.6195065 41.9827844,99.0319481 C42.0475621,106.860255 41.9112966,114.693588 41.8746494,122.521895 C41.8390346,130.156002 41.6315393,137.74129 40.9835037,145.326577 C40.3323712,152.952069 39.603299,160.486743 39.2817329,168.159259 C39.0313966,174.137461 38.9170678,181.09097 36.890634,186.544007 C35.2791907,190.880662 31.1834821,191.51603 30.0967128,186.256476 C29.4928087,183.332706 29.5689419,180.068279 29.6355262,177.063384 C29.7209502,173.208101 29.9452206,169.358561 30.0595494,165.503996 C30.5191876,150.036197 29.9232839,134.565527 30.2347849,119.091626 C30.5390596,103.9731 32.4823921,88.871087 30.3320805,73.8534305 C28.5564992,61.4519104 24.045542,50.802498 18.8615156,40.5931767 C13.873887,30.7708195 8.44546012,21.187174 5.07495258,10.0143908 C4.10715753,6.80560332 3.35898744,3.48051124 3,0.0301404047 C3.15691184,-0.0427294746 3.28388655,0.0164997376 3.38092413,0.208187006 Z" id="Thi-Succs!" fill="#C1DEE2"></path>
                    <path d="M0.973588404,41.6169557 C2.7226644,42.8799919 3.70001184,44.7275773 4.88222633,46.55055 C6.35238241,48.8169596 8.08078375,50.8630865 9.55056393,53.131137 C12.6152999,57.8596264 15.3078921,62.8785444 18.1016022,67.7986018 C23.4055915,77.1374401 27.4326388,87.0907728 29.4271794,97.8948808 C31.4946451,109.09156 32.052109,120.648403 32.9193169,132.012037 C33.8391512,144.05621 34.7653759,156.188167 34.8871684,168.278693 C34.9416743,173.695515 35.2345026,179.445837 34.5841907,184.824509 C34.1793433,188.173053 32.6682138,191.026883 29.2614062,191 C22.0249003,190.94238 18.6274903,182.927289 17.2080811,176.353675 C15.118813,166.674363 14.7019367,156.392862 15.0327312,146.494087 C15.432316,134.55821 17.5039166,122.801595 18.4004449,110.911661 C19.3499755,98.3247808 18.8135622,85.9602344 14.4861685,74.1088605 C12.2999174,68.1197961 9.76257314,62.2743052 7.48422591,56.3250312 C6.51402064,53.7919851 5.71936199,51.1900238 4.40896463,48.831317 C2.95121334,46.2076145 1.14161698,43.8259359 -3.0475622e-14,41 C0.324404167,41.2059254 0.649184237,41.4114405 0.973588404,41.6169557 Z" id="Thi-Succs!" fill="#89C5CC"></path>
                    <path d="M84.3341427,16.5176702 C84.5560133,16.345237 84.7781571,16.1728402 85,16 C84.3609397,18.6926575 83.2065589,20.8798938 82.3241537,23.3413066 C81.5309592,25.5541267 81.1289139,28.058225 80.5946654,30.4769505 C79.3401416,36.1577567 77.8904265,41.7105156 76.7055048,47.4397171 C74.3598951,58.7767524 74.8035283,70.9901843 76.3418843,83.5681524 C77.7947507,95.4496261 80.092478,107.312713 81.1873452,119.191609 C82.0949201,129.04307 82.4850091,139.201741 81.6192928,148.601 C81.0309846,154.984369 79.1025548,162.605994 73.8481376,161.961759 C71.3744617,161.658503 70.0840672,158.681129 69.5641892,155.320205 C68.7291114,149.921644 68.5543005,144.245802 68.2287956,138.877693 C67.5023548,126.895908 67.3576487,114.950973 67.2142162,103.092499 C67.078414,91.904007 66.7045185,80.493842 67.4521172,69.5872699 C68.1731866,59.0630547 70.4284885,49.5797393 73.6530782,40.8297246 C75.3514544,36.2198206 76.9696914,31.5020505 78.8779164,27.1084404 C79.7930343,25.0009936 80.9110333,23.1387509 81.826535,21.0329683 C82.5626976,19.3391662 83.148338,17.6010976 84.3341427,16.5176702 Z" id="Thi-Succs!" fill="#C1DEE2"></path>
                    <path d="M3.20880772,76.3018223 C4.16572159,74.6953252 6.27206517,79.9934093 6.59263271,80.6597751 C6.45704992,80.3283084 6.32092787,79.9973172 6.18360206,79.666614 C8.08298767,82.8249267 9.82062484,86.1127294 10.9009829,89.7341519 C11.9700503,93.3191128 12.888301,96.9765376 13.89141,100.586979 C15.7735895,107.360999 18.2016657,113.942756 19.9069626,120.7778 C21.5685818,127.438224 21.9875459,133.985891 21.5852981,140.875198 C21.1672391,148.035491 20.9114736,155.305643 21.3991881,162.462075 C21.632116,165.880018 22.7427231,169.063767 23.5039187,172.354313 C24.2660416,175.648102 24.8662939,178.985809 25.7672782,182.238759 C25.974095,181.814996 26.0004407,183.231705 26,183.339248 C25.99434,184.151918 25.8808641,184.833382 25.6194022,185.603962 C24.9475372,187.585538 23.69062,189.268993 21.7779741,189.815552 C18.3215161,190.803119 15.1122443,187.659032 13.9975999,184.339008 C12.398575,179.575285 11.5174472,174.310953 10.7554023,169.304056 C10.0567643,164.712777 9.89144111,160.094092 10.0990013,155.439587 C10.5078659,146.260651 12.1689639,137.201885 12.618303,128.025744 C13.1073521,118.035719 11.1280407,108.649277 9.47082403,98.9248264 C8.67258323,94.2391921 7.90974363,89.5977685 6.35630439,85.1336672 C5.7273694,83.3259909 4.90736765,81.7307159 4.04759418,80.0614309 C3.55838288,79.1117083 2.56905129,77.4176151 3.20880772,76.3018223 Z" id="Thi-Succs!" fill="#C1DEE2"></path>
                    <path d="M31.2520927,60.6970481 C30.8556379,72.1418193 30.1720216,83.4997745 28.6461885,94.8239462 C27.0889362,106.380282 25.300327,117.896941 23.8019539,129.46349 C22.3433779,140.722452 20.8145443,152.168401 21.0183676,163.584496 C21.1684795,171.99346 19.7741408,186.218697 29.1133695,190.368969 C38.572085,194.57188 40.6010206,176.62338 41.2221153,170.699078 C42.4123367,159.332874 42.027006,147.846855 41.4493767,136.418583 C40.8563654,124.689401 39.8664321,113.01993 38.6395466,101.333567 C37.2768349,88.3528226 36.2076085,75.3135458 35.3494633,62.2958749 C34.92489,55.8569635 34.820295,49.4286586 34.9374389,42.9881759 C35.048171,36.9106701 34.8172608,30.7703111 32.6564941,25 C32.5432773,25.0821019 32.4308129,25.1642038 32.3175887,25.2459129" id="Thi-Succs!" fill="#69A1AC"></path>
                    <path d="M80.0827466,96.9552251 C78.3816844,99.4332953 76.6669438,101.887253 75.0605101,104.512188 C72.1861393,109.208575 69.5869207,114.431593 68.8049844,121.146824 C67.1686355,135.200365 68.4814231,150.378956 68.7982735,164.862679 C68.863082,167.822444 68.4887518,170.692884 69.6553203,173.509621 C70.713019,176.063863 72.6905254,178.01037 74.5755064,178 C78.6108036,177.976942 77.9951288,168.09535 78.0017787,163.745849 C78.0139471,156.122577 77.1591232,148.422037 77.232697,140.805889 C77.3061571,133.260434 77.7650203,125.694154 78.8589994,118.527917 C79.96657,111.274547 81.5885624,104.309427 83.7291347,97.809562 C84.0261843,96.9075488 86.1579416,89.9374968 84.1438969,91.1387197" id="Thi-Succs!" fill="#89C5CC"></path>
                    <path d="M62.262195,22 C59.6091513,22 59.625416,35.2259973 59.5456053,36.9248132 C59.257379,43.055394 59.3250857,49.1876151 59.1427693,55.3194261 C58.7437159,68.7008304 58.2535042,82.1995075 56.243485,95.4263249 C55.1613125,102.546754 53.9066581,109.63561 52.557063,116.701913 C51.2036854,123.788718 49.3869518,130.866913 48.4965519,138.043518 C47.6417075,144.942523 48.1247324,151.977253 48.2419898,158.910292 C48.3592472,165.885155 48.5699324,172.87396 49.4837837,179.787726 C49.7092206,181.494333 49.9736172,183.194789 50.256548,184.891145 C50.4921976,186.304569 50.3548929,188.057511 50.7535682,189.400818 C51.3928102,191.552324 54.1328514,192.256371 55.9779537,191.920134 C60.9704721,191.008604 64.1594958,184.739838 65.8650239,180.159637 C68.0429859,174.311167 69.1985389,167.967363 70.3389619,161.803978 C71.6310631,154.821324 72.3883191,147.732059 72.7434956,140.623111 C73.4655743,126.17518 72.5388625,111.711667 71.5039711,97.310071 C70.928275,89.3006645 70.263312,81.3265219 69.2458201,73.3667309 C68.2324891,65.4409736 66.9324447,57.5504802 66.0859217,49.6013503 C65.4708876,43.8246382 64.8649315,38.0401352 64.4666346,32.2412807 C64.3713156,30.8586094 64.2911267,22 62.262195,22" id="Thi-Succs!" fill="#69A1AC"></path>
                    <path d="M58.9407927,118.138703 C58.5083549,104.252695 52.9265288,43.2589078 51.6565806,26.4671323 C51.3390091,22.2641696 48.2815387,4.76463908 47.8849122,-1.2490009e-14 C46.809561,1.346742 46.901454,22.3094454 46.9132785,27.1261944 C46.9257786,31.8908335 46.3348929,36.5764535 46.0308351,41.3154647 C45.7210339,46.1510074 38.5722965,108.600882 37.6445823,113.247206 C35.7989512,122.490734 34.5638007,131.976445 33.6110862,141.427558 C32.6830341,150.639478 31.2401108,160.357975 32.4820181,169.618161 C32.7674946,171.749969 33.2191894,173.847606 33.9546715,175.805999 C34.749276,177.922003 35.2938774,179.878687 35.9317231,182.09293 C36.9580872,185.659469 38.8148671,188.78948 41.667943,190.261798 C47.51734,193.280756 50.6582574,186.44667 52.2505069,180.496744 C54.7934439,170.994802 56.4255588,161.337812 57.190771,151.358766 C58.0374031,140.318301 59.2870808,129.255197 58.9407927,118.138703" id="Thi-Succs!" fill="#89C5CC"></path>
                </g>
                <g id="Planter" transform="translate(0.000000, 159.000000)">
                    <rect id="Vase" fill="#FFFFFF" x="10" y="0" width="91" height="91" rx="2"></rect>
                    <rect id="Leg" fill="#C5CFD6" x="0" y="10" width="10" height="113" rx="2"></rect>
                    <rect id="Leg" fill="#C5CFD6" x="50" y="10" width="10" height="113" rx="2"></rect>
                    <rect id="Leg" fill="#C5CFD6" x="101" y="10" width="10" height="113" rx="2"></rect>
                </g>
            </g>
        </g>
        <g id="Group-2" transform="translate(368.000000, 337.000000)">
            <g id="Group" transform="translate(0.000000, 71.000000)">
                <g id="Head" transform="translate(83.126667, 0.000000)">
                    <g transform="translate(60.660000, 34.847775)" fill="#B28B67" id="Head-[skin]">
                        <path d="M42.8476868,10.2676529 C49.3571909,22.4094292 48.5836926,53.2080515 40.1707386,55.3781256 C36.8157079,56.2435369 29.6685445,54.1236648 22.3943525,49.7361597 L26.96,82.0608899 L0,82.0608899 L9.28087007,38.7706122 C4.10488087,32.6906073 0.601712161,25.2395437 1.18711208,16.89044 C2.87385762,-7.16629948 36.3381828,-1.87412331 42.8476868,10.2676529 Z"></path>
                    </g>
                    <path d="M83.1266667,32.5995316 C97.5829234,32.5995316 103.064226,38.5643662 103.346667,43.8407494 C97.1518799,45.5444736 86.327324,46.2005244 70.77,46.088993 L70.77,47.2131148 L84.25,48.3372365 L86.4966667,55.0819672 C82.9222406,54.8149398 80.3679876,57.2684386 78.3297249,60.553265 C77.4483956,59.946829 76.3949455,59.5784543 75.2633333,59.5784543 C72.161334,59.5784543 69.6466667,62.3465299 69.6466667,65.1990632 C69.6466667,68.1664125 71.0468407,70.4608212 73.0464156,71.4343467 C71.9787525,73.5241611 70.9047858,75.0407153 69.6466667,75.3161593 C64.7917767,74.8247028 58.4133333,62.7490624 58.4133333,52.8337237 C58.4133333,41.9808996 67.0427607,32.5995316 83.1266667,32.5995316 Z" id="Combined-Shape" fill="#191847"></path>
                </g>
                <g id="Bottom" transform="translate(0.000000, 211.334895)">
                    <path d="M314.533339,25.7036691 C314.501443,49.4963497 292.804339,162.449091 291.671505,169.580368 C290.53867,176.711644 278.403171,179.044592 277.696481,170.134094 C276.572018,155.955986 274.482906,106.805867 276.573148,83.9400447 C277.183729,77.2607042 277.827557,70.8044716 278.475995,64.756063 C267.073736,85.2552491 249.73353,114.230844 226.45628,151.681999 L213.51935,145.767316 C223.678319,112.272898 232.008521,88.6267299 238.509956,74.8288121 C249.641992,51.2034272 260.080094,30.9714346 264.473155,23.8448793 C270.276406,14.4306704 279.689311,15.6810384 286.320593,20.3426172 C294.383737,9.39509115 314.54548,16.6415652 314.533339,25.7036691 Z" id="Legs-[skin]" fill="#B28B67"></path>
                    <path d="M234.58685,138.639705 L240.310315,24.540563 C244.449554,4.81192925 279.523041,13.9763369 279.511006,24.5494051 C279.483671,48.5535432 265.0909,131.471511 265.082757,138.623146 L234.58685,138.639705 Z" id="Leg-Back" fill="#1F28CF" transform="translate(257.048928, 75.786019) rotate(20.000000) translate(-257.048928, -75.786019) "></path>
                    <path d="M315.656667,33.9221187 C315.656667,63.757636 302.5881,133.889642 302.57912,140.459506 L270.921208,139.391101 C276.455054,78.4155726 278.788729,47.7212222 277.922233,47.3080496 C275.972616,46.3784113 198.001128,58.1071698 174.61621,58.9928158 C140.895043,60.2699219 126.945271,39.5677571 125.813333,0.281655996 L191.132522,0.281655996 C246.986229,6.95344743 283.69559,11.5937897 301.260604,14.202683 C312.54043,15.8780507 315.656667,25.7032017 315.656667,33.9221187 Z" id="Leg-Front" fill="#2B44FF"></path>
                    <g id="编组" transform="translate(209.299716, 121.658604)" fill="#E4E4E4">
                        <g id="Left-[shoe]" transform="translate(34.261667, 22.482436) rotate(14.000000) translate(-34.261667, -22.482436) ">
                            <path d="M3.10508571,28.2982701 C1.78391746,31.7843094 1.12333333,34.3817806 1.12333333,36.0906838 C1.12333333,38.1177971 1.46079862,41.0758596 2.1357292,44.9648712 C4.48567351,44.9648712 25.6050187,44.9648712 65.4937649,44.9648712 C67.1402157,39.5179473 66.1897888,36.5773283 62.6424843,36.1430143 C59.0951799,35.7087003 56.1483738,35.3165496 53.8020661,34.9665621 L24.2383414,21.7776556 C23.7339709,21.5526469 23.1426923,21.7791144 22.9176837,22.2834848 C22.9137654,22.2922679 22.909974,22.3011071 22.9063107,22.3099995 L20.9650094,27.0224207 L20.9650094,27.0224207 C17.6811332,28.5556746 15.0126429,29.3223015 12.9595385,29.3223015 C11.2482833,29.3223015 8.86815687,28.6128024 5.81915933,27.1938043 L5.81915803,27.1938071 C4.8177311,26.7277447 3.62809599,27.1617435 3.16203364,28.1631704 C3.14140622,28.2074925 3.12241082,28.252556 3.10508571,28.2982701 Z" id="shoe"></path>
                        </g>
                    </g>
                    <g id="Right-[shoe]" transform="translate(272.970000, 124.777518)" fill="#E4E4E4">
                        <path d="M3.10508571,28.2982701 C1.78391746,31.7843094 1.12333333,34.3817806 1.12333333,36.0906838 C1.12333333,38.1177971 1.46079862,41.0758596 2.1357292,44.9648712 C4.48567351,44.9648712 25.6050187,44.9648712 65.4937649,44.9648712 C67.1402157,39.5179473 66.1897888,36.5773283 62.6424843,36.1430143 C59.0951799,35.7087003 56.1483738,35.3165496 53.8020661,34.9665621 L24.2383414,21.7776556 C23.7339709,21.5526469 23.1426923,21.7791144 22.9176837,22.2834848 C22.9137654,22.2922679 22.909974,22.3011071 22.9063107,22.3099995 L20.9650094,27.0224207 L20.9650094,27.0224207 C17.6811332,28.5556746 15.0126429,29.3223015 12.9595385,29.3223015 C11.2482833,29.3223015 8.86815687,28.6128024 5.81915933,27.1938043 L5.81915803,27.1938071 C4.8177311,26.7277447 3.62809599,27.1617435 3.16203364,28.1631704 C3.14140622,28.2074925 3.12241082,28.252556 3.10508571,28.2982701 Z" id="shoe"></path>
                    </g>
                    <rect id="Base" fill="#2F3676" x="275.216667" y="169.742389" width="59.5366667" height="7.86885246" rx="3.93442623"></rect>
                    <path d="M121.21,6.74473068 L243.873333,6.74473068 C249.396181,6.74473068 253.873333,11.2218832 253.873333,16.7447307 L253.873333,73.0679157 L253.873333,73.0679157 L115.21,73.0679157 C113.000861,73.0679157 111.21,71.2770547 111.21,69.0679157 L111.21,16.7447307 C111.21,11.2218832 115.687153,6.74473068 121.21,6.74473068 Z" id="Seat" fill="#2F3676"></path>
                    <path d="M242.64,6.74473068 L246.150618,6.74473068 C251.048569,6.74473068 255.225677,10.2923486 256.018681,15.125678 L280.833333,166.370023 L280.833333,166.370023 L268.829714,166.370023" id="Wheel-Stuff" fill="#2F3676"></path>
                    <ellipse id="Front-Wheel" fill="#191847" cx="275.216667" cy="168.618267" rx="20.22" ry="20.234192"></ellipse>
                    <g id="Wheel" transform="translate(40.440000, 15.737705)" fill="#191847">
                        <path d="M85.3733333,0 C132.523723,0 170.746667,38.2497713 170.746667,85.4332553 C170.746667,132.616739 132.523723,170.866511 85.3733333,170.866511 C38.2229433,170.866511 0,132.616739 0,85.4332553 C0,38.2497713 38.2229433,0 85.3733333,0 Z M85.3733333,15.7377049 C46.9085415,15.7377049 15.7266667,46.9414657 15.7266667,85.4332553 C15.7266667,123.925045 46.9085415,155.128806 85.3733333,155.128806 C123.838125,155.128806 155.02,123.925045 155.02,85.4332553 C155.02,46.9414657 123.838125,15.7377049 85.3733333,15.7377049 Z"></path>
                        <rect id="Wheel-Stuff" x="80.88" y="11.2412178" width="8.98666667" height="148.384075"></rect>
                        <path d="M82.8524042,11.2663613 L87.8422249,11.2681118 C88.9462459,11.2699029 89.8411354,12.1647923 89.8429265,13.2688133 L89.8935607,157.600851 C89.8953509,158.70542 89.0002346,159.601165 87.8956652,159.601552 C87.8951974,159.601552 87.8947297,159.601552 87.8942624,159.600149 L82.9044417,159.598399 C81.8004208,159.596608 80.9055313,158.701718 80.9037402,157.597697 L80.853106,13.2656595 C80.8513157,12.1610906 81.746432,11.265346 82.8510015,11.2649585 C82.8514692,11.2649583 82.851937,11.2649583 82.8524042,11.2663613 Z" id="Wheel-Stuff" transform="translate(85.373333, 85.433255) rotate(45.000000) translate(-85.373333, -85.433255) "></path>
                        <path d="M82.8768462,11.2932553 L87.8698205,11.2932553 C88.97439,11.2932553 89.8698205,12.1886858 89.8698205,13.2932553 L89.8698205,157.573255 C89.8698205,158.677825 88.97439,159.573255 87.8698205,159.573255 L82.8768462,159.573255 C81.7722767,159.573255 80.8768462,158.677825 80.8768462,157.573255 L80.8768462,13.2932553 C80.8768462,12.1886858 81.7722767,11.2932553 82.8768462,11.2932553 Z" id="Wheel-Stuff" transform="translate(85.373333, 85.433255) rotate(90.000000) translate(-85.373333, -85.433255) "></path>
                        <path d="M82.9044417,11.2681118 L87.8942624,11.2663613 C88.9988314,11.264571 89.8945759,12.1596873 89.8949634,13.2642567 C89.8949636,13.2647245 89.8949636,13.2651923 89.8935607,13.2656595 L89.8429265,157.597697 C89.8411354,158.701718 88.9462459,159.596608 87.8422249,159.598399 L82.8524042,159.600149 C81.7478353,159.60194 80.8520907,158.706823 80.8517032,157.602254 C80.8517031,157.601786 80.8517031,157.601318 80.853106,157.600851 L80.9037402,13.2688133 C80.9055313,12.1647923 81.8004208,11.2699029 82.9044417,11.2681118 Z" id="Wheel-Stuff" transform="translate(85.373333, 85.433255) rotate(135.000000) translate(-85.373333, -85.433255) "></path>
                    </g>
                </g>
                <g id="Body/Long-Sleeve-1" transform="translate(22.466667, 92.177986)">
                    <path d="M76.3527329,83.6905106 L100.950803,83.7828906 C73.9783515,144.523469 59.9144969,176.326274 58.7592392,179.191303 C56.1599093,185.63762 61.6604409,195.455249 64.0126865,200.731169 C60.5558101,202.279104 58.8249432,200.541904 57.0784383,198.582392 L56.652376,198.103002 C54.6539813,195.860625 52.453477,193.651783 47.5034289,195.956338 C46.1000566,196.609695 44.7501119,197.347447 43.4310769,198.100865 L42.867603,198.424517 L42.867603,198.424517 L42.3075201,198.748886 C42.1213472,198.856994 41.9356738,198.965022 41.7504342,199.072768 L41.1959515,199.394962 C35.1095153,202.925401 29.4240638,205.931188 21.7803496,201.211471 C20.5273499,200.437789 19.1542664,197.524737 22.4718097,195.248341 C25.1120852,193.436666 28.1243606,191.190838 31.0540031,188.866604 L31.8160842,188.258737 C37.7663533,183.486847 43.20648,178.516719 44.2570077,176.383982 C44.4545211,175.982999 44.7209168,175.367831 45.0561947,174.53848 L45.2899181,173.953848 C48.9081862,164.811135 59.2624578,134.723356 76.3527329,83.6905106 L76.3527329,83.6905106 Z M284.981976,62.1810175 C280.012302,66.3269396 274.969866,70.9131952 275.855312,73.1258015 C276.740757,75.3384077 281.362491,74.51517 282.12813,77.9183466 C282.638556,80.1871309 275.137762,80.5557858 259.62575,79.0243111 L223.637552,93.3021077 L215.68,73.4172814 L260.032431,67.3631829 C268.904716,62.4247604 277.066788,59.0815347 284.518648,57.3335059 C286.615678,57.2722358 289.951651,58.0350953 284.981976,62.1810175 Z" id="Arms-[skin]" fill="#997659"></path>
                    <path d="M138.698321,10.8659131 L157.99642,10.4663799 C166.464304,52.8323853 194.566249,77.6017964 251.391435,63.4124602 L263.867057,117.832999 C210.61668,129.510756 161.493599,112.064989 146.701636,54.4881359 C142.872464,39.5833077 139.516701,24.0168863 138.698321,10.8659131 Z" id="Clothes-Back" fill="#AFB9C5" transform="translate(201.282689, 65.863608) rotate(5.000000) translate(-201.282689, -65.863608) "></path>
                    <path d="M134.21267,0 L134.227171,0.018 L163.408609,6.70569732 C163.408609,56.4282526 179.078205,88.3320517 187.348345,124.795275 L187.596667,125.901639 L108.787779,125.900784 C107.677573,138.660845 106.99581,151.775885 106.64055,165.245902 L106.64055,165.245902 L47.6311708,165.245902 C61.003027,94.0484833 89.2264916,38.9665161 132.301565,0 L132.301565,0 L134.21267,0 Z" id="Clothes" fill="#C5CFD6"></path>
                    <path d="M121.221737,54.2480288 C119.190649,85.5456287 120.385097,109.430166 124.80508,125.901639 L124.80508,125.901639 L108.787733,125.901315 C110.938631,101.179854 114.697705,77.7908181 120.806277,55.7342086 Z" id="Shade" fill-opacity="0.1" fill="#000000"></path>
                </g>
            </g>
            <g id="编组" transform="translate(413.000000, 0.000000)">
                <g id="Head" transform="translate(76.500000, 58.500000) scale(-1, 1) translate(-76.500000, -58.500000) ">
                    <g transform="translate(60.750000, 34.875000)" fill="#B28B67" id="Head-[skin]">
                        <path d="M42.9112591,10.2756745 C49.4304211,22.4269365 48.6557752,53.2496203 40.2303391,55.4213898 C36.870312,56.2874819 29.712484,54.1659255 22.4274579,49.7749434 L27,82.125 L0,82.125 L9.29488951,38.8011947 C4.11108382,32.7163862 0.6025955,25.2593962 1.18887338,16.9036356 C2.8781215,-7.17189815 36.392097,-1.87558746 42.9112591,10.2756745 Z"></path>
                    </g>
                    <path d="M89.0235657,33.3231427 C96.5992062,33.9729342 103.36389,36.2829524 105.281056,37.6548153 C105.281056,44.8269426 103.891354,46.9548917 92.0214063,46.7673209 C89.10495,48.307557 86.8628833,50.959772 84.5276562,54.4368935 C85.5604178,68.8335255 88.2944106,76.0327804 92.7290154,76.0327804 C99.3809226,76.0327804 105.024593,71.8099249 107.94329,71.8099249 C110.070922,71.8099249 109.595887,74.4724581 108.185582,76.4465373 C107.022034,78.0752161 101.355657,79.6450678 101.355657,82.1700669 C101.355657,83.4990138 102.595798,83.5873924 103.770668,83.5912649 L104.290548,83.5912052 C105.134986,83.5946043 105.832565,83.6480117 105.832565,84.239141 C105.832565,86.7162344 106.619375,91.3736131 102.320127,91.3736131 C97.9691448,91.3736131 85.4941078,89.7880317 83.3562243,83.3304061 C81.9765909,79.1631274 81.0845255,70.5280505 80.6800282,57.4251754 C80.416022,57.3911351 80.1473953,57.375 79.875,57.375 C76.1470779,57.375 73.125,60.3970779 73.125,64.125 C73.125,66.0174955 73.9038283,67.728086 75.1584544,68.9537407 C73.5965959,71.1582932 71.8462006,73.4612435 69.8404345,75.837589 C62.305206,71.3167584 56.713638,58.0825927 64.0805469,45.3693131 C66.1167837,39.1412751 70.7265389,35.8146459 76.1707708,34.2699852 C80.5808792,32.4252229 85.158989,32.2172243 89.0235657,33.3231427 Z" id="Hair" fill="#191847"></path>
                </g>
            </g>
            <g id="编组" transform="translate(330.000000, 212.000000)">
                <g id="Bottom" transform="translate(168.500000, 134.500000) scale(-1, 1) translate(-168.500000, -134.500000) ">
                    <polygon id="[skin]-Leg" fill="#B28B67" points="143.786667 1.11962508e-13 186.058641 138.466535 206.53624 256.223405 222.592091 256.223405 200.954194 1.11962508e-13"></polygon>
                    <polygon id="Shadow" fill-opacity="0.1" fill="#000000" points="143.786667 1.11962508e-13 186.058641 138.466535 206.53624 256.223405 222.592091 256.223405 200.954194 1.11962508e-13"></polygon>
                    <path d="M128.664047,0 C131.535262,76.0255703 128.15623,115.240936 127.513618,122.14819 C126.871005,129.055443 118.07154,173.842446 97.2398755,258.542169 L114.348585,252.654816 C147.271089,174.972635 158.489905,134.599834 162.265867,124.399236 C166.041829,114.198637 176.070596,72.7322255 192.352169,0 L128.664047,0 Z" id="[skin]-Leg" fill="#B28B67"></path>
                    <g id="Left-[shoe]" transform="translate(94.360000, 223.979079)" fill="#E4E4E4">
                        <path d="M3.10524143,28.3331328 C1.78396937,31.8237246 1.12333333,34.4245707 1.12333333,36.1356713 C1.12333333,38.1653115 1.46079862,41.1270612 2.1357292,45.0209205 C4.48567351,45.0209205 25.6050187,45.0209205 65.4937649,45.0209205 C67.1402157,39.5672069 66.1897888,36.6229224 62.6424843,36.1880671 C59.0951799,35.7532117 56.1483738,35.3605721 53.8020661,35.0101483 L24.2389955,21.8050939 C23.7347294,21.5798514 23.1433459,21.8060447 22.9181034,22.3103107 C22.9140583,22.3193666 22.9101483,22.3284821 22.9063744,22.3376543 L20.9650094,27.0561045 L20.9650094,27.0561045 C17.6811332,28.5912696 15.0126429,29.3588521 12.9595385,29.3588521 C11.2485151,29.3588521 8.86880174,28.6486611 5.82039845,27.2282791 L5.82038994,27.2282974 C4.81918028,26.7617908 3.62936117,27.1952533 3.16285458,28.1964629 C3.141967,28.2412916 3.12274941,28.2868795 3.10524143,28.3331328 Z" id="shoe"></path>
                    </g>
                    <g id="Right-[shoe]" transform="translate(199.953333, 223.979079)" fill="#E4E4E4">
                        <path d="M3.10524143,28.3331328 C1.78396937,31.8237246 1.12333333,34.4245707 1.12333333,36.1356713 C1.12333333,38.1653115 1.46079862,41.1270612 2.1357292,45.0209205 C4.48567351,45.0209205 25.6050187,45.0209205 65.4937649,45.0209205 C67.1402157,39.5672069 66.1897888,36.6229224 62.6424843,36.1880671 C59.0951799,35.7532117 56.1483738,35.3605721 53.8020661,35.0101483 L24.2389955,21.8050939 C23.7347294,21.5798514 23.1433459,21.8060447 22.9181034,22.3103107 C22.9140583,22.3193666 22.9101483,22.3284821 22.9063744,22.3376543 L20.9650094,27.0561045 L20.9650094,27.0561045 C17.6811332,28.5912696 15.0126429,29.3588521 12.9595385,29.3588521 C11.2485151,29.3588521 8.86880174,28.6486611 5.82039845,27.2282791 L5.82038994,27.2282974 C4.81918028,26.7617908 3.62936117,27.1952533 3.16285458,28.1964629 C3.141967,28.2412916 3.12274941,28.2868795 3.10524143,28.3331328 Z" id="shoe"></path>
                    </g>
                    <polygon fill="#69A1AC" points="138.17 0 156.143333 70.5472423 211.04099 70.5472423 202.855526 0"></polygon>
                    <path d="M128.06,-3.998661e-15 C122.146143,17.7613678 121.02281,41.2771152 124.69,70.5472423 L180.71099,70.5472423 L196.115526,-3.998661e-15 L128.06,-3.998661e-15 Z" fill="#89C5CC"></path>
                </g>
            </g>
            <g id="编组" transform="translate(353.000000, 93.000000)">
                <g id="Body" transform="translate(144.000000, 105.000000) scale(-1, 1) rotate(8.000000) translate(-144.000000, -105.000000) ">
                    <path d="M76.8464191,104.460841 L100.355985,104.553128 C85.8399127,151.329974 78.0033908,176.149476 76.8464191,179.011633 C74.2432326,185.451486 79.7519252,195.259271 82.1076608,200.529901 C78.3649523,202.201667 76.6424868,200.037825 74.73643,197.904369 L74.448869,197.585062 C72.5189435,195.46431 70.2952348,193.567244 65.5739088,195.759858 C64.5700127,196.226073 63.5934161,196.735304 62.6359005,197.262529 L62.0636151,197.580823 C61.9685939,197.634165 61.8737471,197.687637 61.7790665,197.741214 L61.2129106,198.063734 L61.2129106,198.063734 L60.650348,198.38757 L60.650348,198.38757 L60.0909841,198.71152 C53.6751806,202.433007 47.8156768,205.939024 39.8126646,201.009722 C38.5578059,200.236816 37.1826852,197.326685 40.5051507,195.052571 C48.7826239,189.386925 60.7109642,179.471023 62.3226709,176.207127 C64.5205208,171.756221 69.3617702,147.840793 76.8464191,104.460841 L76.8464191,104.460841 Z M218.299961,100.084104 L250.168853,131.118087 C259.441526,135.066324 267.039161,139.425974 272.961757,144.197039 C273.14338,144.415728 273.327199,144.661734 273.493348,144.920055 L273.601278,145.093928 C274.562643,146.701473 274.699231,148.644388 269.477115,147.498525 C269.141408,147.424862 268.80459,147.351802 268.467563,147.279805 L267.793499,147.137362 C267.456594,147.066986 267.120081,146.997978 266.784862,146.930798 L266.116414,146.799012 C261.008965,145.809434 256.346849,145.32175 255.379383,146.992776 C254.201599,149.027067 257.672037,152.144325 255.495345,154.80669 C254.044218,156.581599 249.163961,150.935959 240.854575,137.86977 L207.715142,118.366407 L218.299961,100.084104 Z" id="Arms-[skin]" fill="#B28B67"></path>
                    <path d="M137.282929,10.3750499 L146.828759,7.86794582 C167.153521,48.0137234 199.590758,83.2690769 244.14047,113.634006 L216.057671,154.482139 C170.251891,109.704387 140.257913,61.9955244 137.282929,10.3750499 Z" id="Coat-Back" fill="#191847" transform="translate(190.711700, 81.175042) rotate(5.000000) translate(-190.711700, -81.175042) "></path>
                    <path d="M101.25,128.02139 L187.875,128.02139 C167.805978,79.3116622 157.771467,37.9333259 157.771467,3.88638162 L131.640984,0 C111.10488,32.9693339 105.30543,73.5612593 101.25,128.02139 Z" id="Shirt" fill="#DDE3E9"></path>
                    <path d="M132.803721,-4.78761416e-14 C134.844728,0.0701569973 137.953442,0.196558758 142.129866,0.379205282 L142.129866,0.379205282 L148.443928,18.3911487 C149.111816,40.3519187 153.012179,84.6087959 160.145018,151.16178 L160.145018,151.16178 L103.360576,151.1613 C103.509435,155.757997 103.754886,160.397635 104.09693,165.080214 L104.09693,165.080214 L61.875,165.080214 C68.190656,93.9541834 91.254642,38.9274454 131.066958,8.96727731e-15 L131.066958,8.96727731e-15 L131.087,0.019 L131.098031,-4.78761416e-14 Z" id="Coat-Front" fill="#2F3676"></path>
                    <path d="M119.25,151.604278 L103.375177,151.603115 C102.680336,130.990599 103.92547,111.240508 107.11058,92.3528414 C108.728174,121.003175 112.77422,140.75341 119.25,151.604278 Z" id="Shade" fill-opacity="0.1" fill="#000000"></path>
                    <polygon id="Light" fill-opacity="0.2" fill="#FFFFFF" points="115.999761 116.791444 144 103.797578 144 116.791444"></polygon>
                </g>
            </g>
        </g>
    </g>
</svg>