<?xml version="1.0" encoding="utf-8"?>
<!-- Generator: Adobe Illustrator 25.0.0, SVG Export Plug-In . SVG Version: 6.00 Build 0)  -->
<svg version="1.1" id="illustration" xmlns="http://www.w3.org/2000/svg" xmlns:xlink="http://www.w3.org/1999/xlink" x="0px"
	 y="0px" viewBox="0 0 1600 1200" style="enable-background:new 0 0 1600 1200;" xml:space="preserve">
<style type="text/css">
	.st0{opacity:0.6;}
	.st1{fill:#EDF1FC;}
	.st2{fill:#CED7F6;}
	.st3{fill:#FFFFFF;stroke:#020202;stroke-miterlimit:10;}
	.st4{fill:#7C7CE5;}
	.st5{fill:#AFC9F9;stroke:#020202;stroke-miterlimit:10;}
	.st6{fill:#FFC945;stroke:#050505;stroke-miterlimit:10;}
	.st7{fill:#3B3BA3;}
	.st8{fill:#FF6666;}
	.st9{fill:#05CDCD;}
	.st10{fill:#DADFED;}
	.st11{fill:#F2F2FC;stroke:#020202;stroke-width:2;stroke-miterlimit:10;}
	.st12{fill:#FFC53B;}
	.st13{fill:none;stroke:#020202;stroke-miterlimit:10;}
	.st14{fill:none;stroke:#020202;stroke-width:2;stroke-miterlimit:10;}
	.st15{fill:#05CDCD;stroke:#050505;stroke-miterlimit:10;}
	.st16{fill:#FF6666;stroke:#050505;stroke-miterlimit:10;}
	.st17{fill:#84CFA6;}
	.st18{opacity:0.6;fill:#191954;}
	.st19{fill:#FFC035;}
	.st20{fill:none;stroke:#050505;stroke-miterlimit:10;}
	.st21{fill:#FE6666;}
	.st22{stroke:#000000;stroke-miterlimit:10;}
	.st23{fill:#070707;stroke:#000000;stroke-miterlimit:10;}
	.st24{fill:#03082B;}
	.st25{fill:#141C54;stroke:#050505;stroke-miterlimit:10;}
	.st26{fill:none;stroke:#000000;stroke-miterlimit:10;}
	.st27{fill:none;stroke:#FFFFFF;stroke-miterlimit:10;}
	.st28{fill:#0C0C4F;stroke:#0C0C4F;stroke-miterlimit:10;}
	.st29{fill:#3434EA;stroke:#020202;stroke-miterlimit:10;}
	.st30{fill:#4F44FF;stroke:#020202;stroke-miterlimit:10;}
	.st31{fill:none;stroke:#03082B;stroke-miterlimit:10;}
	.st32{stroke:#020202;stroke-miterlimit:10;}
	.st33{fill:#050133;}
	.st34{fill:#FFFFFF;stroke:#0C0C0C;stroke-miterlimit:10;}
	.st35{fill:#E53076;}
	.st36{fill:#FF4C8B;}
	.st37{fill:#0D005F;}
</style>
<g id="page" class="st0">
	<rect x="391" y="160.71" class="st1" width="825.22" height="710.37"/>
	<rect x="391" y="160.71" class="st2" width="824.53" height="43.79"/>
</g>
<g id="middle_box">
	<path class="st3" d="M810.63,587.84H599.9c-1.86,0-3.37-1.51-3.37-3.37v-74.91c0-1.86,1.51-3.37,3.37-3.37h210.73
		c1.86,0,3.37,1.51,3.37,3.37v74.91C814,586.33,812.49,587.84,810.63,587.84z"/>
	<line class="st3" x1="597.3" y1="523.57" x2="814.06" y2="524.54"/>
	<line class="st3" x1="615.14" y1="539.36" x2="787.82" y2="539.36"/>
	<path class="st3" d="M615.14,555.14c57.61,0.13,115.21,0.26,172.82,0.38"/>
	<path class="st3" d="M615.14,570.93c57.48,0.35,114.96,0.7,172.44,1.05"/>
	<circle class="st4" cx="607.14" cy="514.39" r="2.66"/>
	<ellipse class="st4" cx="617.77" cy="514.39" rx="2.66" ry="2.81"/>
	<ellipse class="st4" cx="627.14" cy="514.39" rx="2.66" ry="2.81"/>
</g>
<g id="data">
	<path class="st3" d="M961.8,560.56l-4.86,6.12c12.43,8.66,27.5,13.73,43.74,13.73c42.61,0,77.15-34.87,77.15-77.88
		c0-42.04-32.98-76.29-74.24-77.83v82.92h-62.23l61.76,0.93L961.8,560.56z"/>
	<path class="st5" d="M923.7,507.62c1.56,24.51,14.35,45.93,33.24,59.06l4.86-6.12l41.32-52.01l-61.76-0.93H923.7z"/>
	<path class="st6" d="M923.53,502.53c0,1.71,0.05,3.41,0.17,5.09h79.89V424.7c-0.96-0.04-1.93-0.06-2.91-0.06
		C958.07,424.64,923.53,459.51,923.53,502.53z"/>
</g>
<g id="_x33__round">
	<ellipse class="st4" cx="413.07" cy="181.69" rx="5.74" ry="5.7"/>
	<ellipse class="st4" cx="436.69" cy="181.69" rx="5.74" ry="5.7"/>
	<ellipse class="st4" cx="457.04" cy="181.69" rx="5.74" ry="5.7"/>
</g>
<rect x="522.67" y="269.32" class="st7" width="39.17" height="179.89"/>
<rect x="592.3" y="324.45" class="st8" width="37.72" height="124.76"/>
<rect x="659.04" y="278.03" class="st9" width="40.62" height="171.18"/>
<rect x="731.24" y="398.44" class="st7" width="38.55" height="50.77"/>
<rect x="801.64" y="254.59" class="st7" width="38.73" height="194.62"/>
<rect x="522.67" y="269.32" class="st10" width="39.17" height="35.97"/>
<rect x="592.09" y="324.45" class="st10" width="38.01" height="24.07"/>
<rect x="659.12" y="277.83" class="st10" width="40.41" height="29.07"/>
<rect x="731.3" y="398.48" class="st10" width="38.52" height="12.41"/>
<rect x="801.64" y="254.59" class="st10" width="38.73" height="24.07"/>
<g id="_x34__line">
	<line class="st11" x1="930.03" y1="293.36" x2="1111.26" y2="293.36"/>
	<line class="st11" x1="930.03" y1="312.85" x2="1090.75" y2="313.78"/>
	<line class="st11" x1="930.03" y1="331.47" x2="1005.26" y2="331.47"/>
	<line class="st11" x1="1018.45" y1="331.37" x2="1075.44" y2="331.37"/>
</g>
<g id="chat_box_big">
	<path class="st9" d="M1148.08,193.48h-127.67c-22.5,0-40.75-18.24-40.75-40.75v0c0-22.5,18.24-40.75,40.75-40.75h127.67
		c22.5,0,40.75,18.24,40.75,40.75v0C1188.83,175.24,1170.59,193.48,1148.08,193.48z"/>
	<path class="st3" d="M1124.54,207.97H996.87c-22.5,0-40.75-18.24-40.75-40.75v0c0-22.5,18.24-40.75,40.75-40.75h127.67
		c22.5,0,40.75,18.24,40.75,40.75v0C1165.29,189.73,1147.04,207.97,1124.54,207.97z"/>
	<line class="st3" x1="988.72" y1="161.79" x2="1129.07" y2="161.79"/>
	<line class="st3" x1="1007.73" y1="176.28" x2="1109.15" y2="176.28"/>
</g>
<g id="chat_box_2">
	<path class="st12" d="M1395.01,267.54h-79.15c-11.08,0-20.07-8.98-20.07-20.07v0c0-11.08,8.98-20.07,20.07-20.07h79.15
		c11.08,0,20.07,8.98,20.07,20.07v0C1415.07,258.56,1406.09,267.54,1395.01,267.54z"/>
	<ellipse class="st13" cx="1329.98" cy="266.78" rx="10.06" ry="10.28"/>
</g>
<line class="st14" x1="185.42" y1="1064.8" x2="1535.06" y2="1071.79"/>
<g id="chat_box">
	<path class="st3" d="M325.02,290.65h-53.69c-7.25,0-13.12-5.88-13.12-13.12v0c0-7.25,5.88-13.12,13.12-13.12h53.69
		c7.25,0,13.12,5.88,13.12,13.12v0C338.14,284.77,332.27,290.65,325.02,290.65z"/>
	
		<rect x="293.17" y="280.58" transform="matrix(0.8366 0.5478 -0.5478 0.8366 207.6219 -117.9647)" class="st9" width="16.76" height="16.93"/>
	
		<rect x="289.6" y="282.17" transform="matrix(0.8366 0.5478 -0.5478 0.8366 207.9103 -115.7457)" class="st13" width="16.76" height="16.93"/>
</g>
<g id="big_box">
	<rect x="568.68" y="622.85" class="st8" width="66.65" height="56.28"/>
	<rect x="569.15" y="703.28" class="st9" width="66.65" height="56.28"/>
	<rect x="641.17" y="621.03" class="st15" width="139.23" height="25.18"/>
	<rect x="641.17" y="658.06" class="st3" width="201.16" height="14.81"/>
	<rect x="564.5" y="697.82" class="st13" width="66.65" height="56.28"/>
	<rect x="640.93" y="699.41" class="st16" width="139.23" height="25.18"/>
	<rect x="640.93" y="736.44" class="st3" width="309.57" height="14.81"/>
	<rect x="564.74" y="619.43" class="st13" width="66.65" height="56.28"/>
</g>
<g id="small_box">
	<rect x="1042.39" y="583.45" class="st17" width="18.34" height="18.34"/>
	<rect x="1043.43" y="615.4" class="st18" width="18.34" height="18.34"/>
	<rect x="1043.43" y="644.81" class="st19" width="18.34" height="18.34"/>
	<rect x="1039.27" y="611.42" class="st20" width="18.34" height="18.34"/>
	<rect x="1039.27" y="642.22" class="st20" width="18.34" height="18.34"/>
	<line class="st20" x1="1068.32" y1="588.38" x2="1108.44" y2="588.38"/>
	<line class="st20" x1="1068.32" y1="593.68" x2="1094.33" y2="593.68"/>
	<rect x="1039.27" y="580.33" class="st20" width="18.34" height="18.34"/>
</g>
<g id="angle">
	
		<rect x="1353.44" y="149.22" transform="matrix(0.7628 0.6467 -0.6467 0.7628 429.4388 -845.6369)" class="st21" width="27.63" height="26.5"/>
	
		<rect x="1347.49" y="150.71" transform="matrix(0.7628 0.6467 -0.6467 0.7628 428.9921 -841.4362)" class="st13" width="27.63" height="26.5"/>
	<polygon class="st9" points="272.12,852.77 284.54,859.97 296.96,867.17 283.91,874.32 270.87,881.46 271.49,867.11 	"/>
	<polygon class="st3" points="1378.09,449.47 1379.03,461.65 1379.97,473.83 1368.85,468.41 1357.74,462.98 1367.92,456.23 	"/>
	<circle class="st3" cx="864.46" cy="108.94" r="5.12"/>
	<ellipse class="st8" cx="220.42" cy="429.01" rx="14.26" ry="13.94"/>
	<ellipse class="st13" cx="218.28" cy="424.46" rx="14.26" ry="13.94"/>
	<polygon class="st13" points="268.3,857.96 280.72,865.17 293.14,872.37 280.09,879.51 267.05,886.65 267.67,872.31 	"/>
</g>
<g id="boy">
	<path class="st22" d="M471.13,441.1l-1.38,3.83l-1.48-3.36c-0.02-0.03-0.32-0.23-0.27-0.24L471.13,441.1z"/>
	<path class="st3" d="M374.65,679.6l-57.28,44.17c-1.26,0.97-3.05,0.72-4-0.57l-53.19-72.03c-0.95-1.29-0.7-3.12,0.56-4.09
		l57.28-44.17c1.26-0.97,3.05-0.72,4,0.57l53.19,72.03C376.17,676.79,375.91,678.62,374.65,679.6z"/>
	<line class="st3" x1="275.58" y1="650.78" x2="317.39" y2="618.27"/>
	<line class="st3" x1="283.02" y1="652.87" x2="317.65" y2="626.14"/>
	<line class="st3" x1="297.64" y1="648.16" x2="309.95" y2="638.72"/>
	<path class="st3" d="M349.74,676.99l-29.21,22.52c-0.81,0.63-1.97,0.46-2.58-0.37l-19.88-26.91c-0.61-0.83-0.45-2.01,0.36-2.64
		l29.21-22.52c0.81-0.63,1.97-0.46,2.58,0.37l19.88,26.91C350.71,675.19,350.55,676.37,349.74,676.99z"/>
	<path class="st3" d="M332.71,452.64c-0.07-0.21,0.01-0.43,0.28-0.69c0.94-0.86,2.25-1.28,3.5-1.13c-1.29,1.39-2.59,2.8-3.49,4.47
		c-1.39,2.56-1.61,5.44-2.15,8.26c-1.29,6.74-2.84,13.43-3.92,20.21c-0.61,3.83-1.23,7.67-1.84,11.5
		c-0.66,4.15-1.33,8.29-1.99,12.44c-0.69,4.34-1.39,8.69-2.08,13.03c-0.71,4.42-1.41,8.84-2.12,13.26c-0.7,4.38-1.4,8.76-2.1,13.14
		c-0.68,4.22-1.35,8.44-2.03,12.66c-0.63,3.94-1.26,7.89-1.89,11.83c-0.57,3.55-1.14,7.1-1.7,10.65c-0.49,3.04-0.97,6.07-1.46,9.11
		c-0.38,2.41-0.77,4.81-1.15,7.22c-0.26,1.66-0.53,3.31-0.79,4.97c-0.24,1.48-0.27,2.75-0.18,4.23c0.02,0.36,0.04,0.78,0.22,1.1
		c0.63,1.1,2.05-0.05,2.68-0.57c1.27-1.04,2.38-2.3,3.45-3.55c0.49-0.57,1.36-0.6,1.88-0.06c1.63,1.65,8.73,5.95,12.87,4.77
		c4.89-1.39,27.55-138.7,30.37-153.51c0.13-0.7-0.35-1.36-1.04-1.44c-6.15,0.09-12.33,0.17-18.46-0.23
		C338.93,454.28,333.14,453.87,332.71,452.64z"/>
	<path class="st23" d="M318.58,1032.27l-1.16,33.35l66.42-0.01c0,0,5.56-8.53,0-10.43c-5.56-1.9-28.62-11.16-31.93-21.69
		L318.58,1032.27z"/>
	<path class="st23" d="M456.51,1032.27l-1.06,33.35l66.59-0.01c0,0,5.59-8.53,0-10.43c-5.59-1.9-28.73-11.16-32.06-21.69
		L456.51,1032.27z"/>
	<path class="st3" d="M439.5,261.79c0,0,9.66,54.88,7.24,59.82s-21.73,11.72-22.33,14.8c-0.6,3.08-3.02,18.5-3.02,18.5l-35-4.93
		l9.66-40.7l-5.43-18.5l14.48-14.18C405.1,276.59,434.07,255.63,439.5,261.79z"/>
	<path class="st24" d="M441.95,257.88c-0.08,0.34-0.23,0.66-0.44,0.93c-0.83,1.06-2.05,2.6-3.55,4.41
		c-11.36,13.78-15.31,15.2-17.11,21.49c-1.93,6.73,0.87,12.22-0.5,13.43c-0.15,0.14-0.28,0.17-0.46,0.22
		c-3.04,0.73-5.23-10.9-11.83-12.34c-0.29-0.06-2.94-0.6-5.13,0.93c-1.56,1.08-2.13,2.68-2.72,4.32c-0.7,1.94-1.77,4.94-0.6,7.4
		c1.31,2.77,4.22,2.26,6.03,4.32c1.61,1.82,2.41,5.74-1.51,15.03c-0.18,0.43-0.56,0.76-1.01,0.87c-3.18,0.76-6.36,1.53-9.54,2.29
		c0,0-0.01,0-0.01,0.01c-0.18,0.03-0.78-2.19-1.78-6.68c-0.01-0.07-0.04-0.14-0.06-0.2c-2.19-5.89-4.37-11.77-6.56-17.66
		c-0.05-0.14-0.08-0.3-0.09-0.45l-1.25-23.13c-0.03-0.58,0.26-1.12,0.76-1.4c1.31-0.74,3.8-1.76,4.25-1.83
		c0.14-0.02,0.02,0,2.75-0.88c0.78-0.25,1.61-0.28,2.43-0.34c0.33-0.02,0.63-0.18,0.84-0.44c0.44-0.54,1.02-1.26,1.69-2.12
		c6.69-8.62,7.82-12.93,11.14-17.69c0.54-0.77,10.21-14.26,22.23-13.34C431.19,235.12,447.07,235.06,441.95,257.88z"/>
	<g>
		<path d="M403.58,291.94c0.56,1.36,1.18,2.55,2.02,3.6c0.41,0.52,0.87,1.01,1.38,1.46c0.5,0.47,1.07,0.86,1.66,1.33
			c-0.73-0.08-1.46-0.31-2.11-0.69c-0.67-0.36-1.23-0.89-1.71-1.48c-0.47-0.6-0.84-1.28-1.05-2
			C403.55,293.44,403.45,292.68,403.58,291.94z"/>
	</g>
	<path class="st6" d="M445.4,497.7l2.75,3.16l-3.67,5.98l-108.25,1.64l-4.52-4.62c-0.17-0.18-0.2-0.45-0.06-0.66l4.58-7.01
		l-6.54-8.17c-0.44-0.54-0.64-1.23-0.57-1.92c1.01-10.17,8.87-89.04,11.12-100.53c2.4-12.3,42.33-40.73,42.33-40.73l44.05,9.17
		l14.66,12.08c0.26,0.2,0.47,0.45,0.65,0.72c0.2,0.09,0.4,0.19,0.6,0.3l28.56,73.12c0,0-15.06,4.52-26.66,13.58L445.4,497.7z"/>
	<polygon class="st25" points="382.57,344.85 382.57,331.92 385.42,331.51 426.22,341.51 426.62,354.02 	"/>
	<path class="st3" d="M467.73,441.75l9.65,27.94c0.14,0.4,0.41,0.74,0.77,0.95c6.17,3.57,61.45,35.55,67.75,37.7
		c8.52,2.9,17.42,4.42,25.92,7.5c5.49,1.99,10.95,4.32,15.89,7.5c3.02,1.94,13.92,9.43,7.05,12.24c-2.78,1.13-14.99-5.67-14.99-2.27
		c0,3.4,13.33,28.37,17.21,30.08c0,0,4.98,2.55,4.44,4.54c-0.53,1.97-3.4,3.9-5.07,3.9c-1.34,0-2.95,2.52-3.98,2.8
		c-0.23,0.06-0.43,0.16-0.62,0.31c-0.54,0.43-2.04,1.39-4.22,0.94l-13.34-2.73c-0.35-0.07-0.68-0.26-0.92-0.52l-17.66-19.14
		c-0.19-0.2-0.32-0.44-0.4-0.7c-0.72-2.45-4.75-15.6-8.77-16.63c-4.44-1.13-97.74-33.48-101.62-36.32
		c-3.47-2.54-14.04-35.88-16.25-42.95c-0.24-0.78,0.06-1.62,0.74-2.04c5.83-3.65,29.6-13.75,38.01-13.74
		C467.54,441.09,467.66,441.54,467.73,441.75z"/>
	<path class="st26" d="M563.78,555.7c3.55,4.01,7.11,8.02,10.66,12.03c3.95,1.69,7.89,3.38,11.84,5.07"/>
	<path class="st26" d="M568.56,552.04c4,4.19,8,8.38,12,12.57c3.06,1.82,6.11,3.64,9.17,5.46"/>
	<path class="st26" d="M575.13,547.16c3.85,4.65,7.69,9.29,11.54,13.94c2.93,2.21,5.86,4.42,8.78,6.63"/>
	<path class="st26" d="M464.39,468.43c0.9-0.31,6.87-1.83,14.04,1.83"/>
	<polyline class="st27" points="414.92,455.69 406.96,398.95 409.24,384.9 	"/>
	<line class="st27" x1="336.24" y1="496.2" x2="437.53" y2="495.79"/>
	<line class="st27" x1="382.57" y1="344.85" x2="424.41" y2="354.28"/>
	<path class="st27" d="M421.38,451.24c0,0,25.38-19.24,45.03-15.9"/>
	<path class="st3" d="M336.24,508.48l-17.66,523.28c4.55,0.9,9.86,1.65,15.82,1.91c6.62,0.29,12.53-0.08,17.51-0.69
		c6.72-53.24,9.32-71.76,10.45-76.39c2.17-8.86,0-6.37-1.13-12.17c-1.18-6.04,0-12.17,0.67-22.01c0.1-1.45,0.77-2.79,0.87-4.24
		c2.01-29.97,24.04-356.41,31.99-351.77c8.33,4.87,25,319.91,32.14,322.34c7.14,2.43,11.9-4.87,11.9,7.3
		c0,12.16-9.52,47.44-1.19,48.66c8.33,1.22,13.09,2.43,13.09,12.16c0,9.73-8.33,25.54-3.57,29.19c4.76,3.65,9.18,46.82,9.18,46.82
		c4.93,0.77,10.74,1.33,17.25,1.31c6.26-0.02,11.86-0.56,16.65-1.31c-15.24-175.34-30.49-350.69-45.73-526.03L336.24,508.48z"/>
	<path class="st3" d="M394.8,566.38c0,0-5.21-7.32-10.75-7.32"/>
	<path class="st13" d="M322.84,945.81c0,0,8,8.92,8.73,20.82"/>
	<polygon class="st22" points="428.31,455.71 427.61,455.98 417.4,460.01 430.19,462.27 	"/>
</g>
<g id="girl_1">
	<path class="st3" d="M853.87,795.9c0,0-6.05-1.01-9.91-3.12"/>
	<g>
		<path class="st3" d="M911.91,730.97c0,0,30.48-16.04,32.61-22.46s19.25-97.31,18.18-105.86c-0.82-6.52-1.75-13.03-2.07-19.6
			c-0.15-3.09-0.36-6.39,0.21-9.46c0.26-1.39,1.22-4.91,3.27-4.48c2.87,0.61,4.93,10.25,5.53,12.68c0.88,3.52,10.06,1.43,12.51,1.46
			c6.26,0.07,7.54,2.21,6.99,8.12c-0.84,9.15-1.27,18.35-1.95,27.51c-2.07,27.79-4.25,55.61-7.51,83.29
			c-0.88,7.47-1.8,14.95-3.16,22.34c-0.55,2.97-0.84,8.43-3.14,10.73c-6.95,6.95-46.21,39.32-60.8,46.12L911.91,730.97z"/>
		<path class="st3" d="M686.61,828.54c0,0-16.49,14.08-17.64,18.09c-1.12,3.89,27.54,111.77,27.54,111.77s8.91,12.15,11.34,5.67
			c2.43-6.48,9.72-12.96,9.72-12.96l9.72-3.24l-20.92-82.88c-0.08-0.33,0.03-0.69,0.29-0.91l8.63-7.35
			c-4.96-5.21-10.29-10.54-16-15.93C694.78,836.57,690.97,832.31,686.61,828.54z"/>
		<path class="st3" d="M706.37,864.99c0,0-3.87-2.87-4.27-6.29"/>
		<path class="st3" d="M1044.42,1043.44c-8.87,5.7-20.2,8.03-30.93,7.76c-5.42-0.14-10.83-0.82-16.11-2.05l-0.05-3.11
			c-0.02-1.49-0.44-2.94-1.21-4.22l-18-29.85l23.66-14.68c0,0,19.16,34.66,29.76,42.81
			C1034.83,1042.63,1039.43,1043.3,1044.42,1043.44z"/>
		<path class="st28" d="M1073.96,1069.87l-76.26-1.63l-0.32-19.09c5.28,1.23,10.69,1.91,16.11,2.05
			c10.73,0.27,22.06-2.06,30.93-7.76c11.09,0.31,24.08-2.02,28.72,7.67C1077.25,1059.7,1073.96,1069.87,1073.96,1069.87z"/>
		<path class="st29" d="M812.85,883.39c10.1-5.78,19.86-12.21,29.88-18.14c18.49-10.95,37.16-21.72,56.49-31.14
			c5.58-2.72,11.23-5.35,17.05-7.53c3.89-1.45,8.59-2.72,12.81-1.44c4.87,1.47,8.25,6.5,11.03,10.45c4.73,6.71,8.63,14,12.3,21.33
			c9.55,19.07,17.45,38.97,24.97,58.91c6.97,18.51,13.49,37.18,19.71,55.95c2.59,7.81,5.15,15.64,7.57,23.5
			c0,0-23.3,17.67-29.8,17.67l-13.64-15.98c-0.52-0.61-1.46-0.66-2.05-0.1c-2.41,2.29-8.03,7.11-7.61,1.63
			c0.54-6.96,7.04-31.05-0.54-28.91s-20.05,19.27-18.42,2.68s9.21-35.34,2.17-29.98c-7.04,5.35-21.67,19.27-21.13-8.57
			c0,0-1.2-26.7-4.88-23.56c-14.96,12.78-90.56,52.25-90.56,52.25S776.44,904.24,812.85,883.39z"/>
		<path class="st30" d="M697.31,907.33c0,0-23.16,37.21,3.31,59.54c26.46,22.33,62.85,43.83,62.85,43.83l15.02,9.49
			c0.19,0.12,0.1,0.4-0.12,0.39c-6.08-0.32-44.31-2.17-49.63,0.87c-5.79,3.31-8.27,0-7.44-5.79s-7.44-1.65-12.4,1.65
			s-14.89,7.44-14.89,0.83c0-6.62-22.33,9.1-22.33,9.1l2.48,42.18c0,0,237.29,9.92,246.44,4.14c5.24-3.31,9.77-8.7,10.65-15.01
			c1.01-7.26-4.17-12.47-8.76-17.39c-8.6-9.22-17.44-18.23-26.26-27.24c-22.09-22.56-44.38-44.93-66.71-67.26
			c-7.19-7.19-14.38-14.37-21.59-21.54L697.31,907.33z"/>
		<path class="st3" d="M748.39,766.08l-66.75,58.32c6.35,5.92,12.6,11.95,18.76,18.06c4.97,4.93,10.23,9.59,14.81,14.91
			c1.77,2.06,10.45,11.79,9.29,14.81c0,0,38.3-99.78,38.3-99.78L748.39,766.08z"/>
		<path class="st3" d="M833.89,742.62c0,0,63.04-13.36,74.69-16.48c0.97-0.26,1.99,0.17,2.48,1.05c3.3,5.97,13.99,28.74,1.53,54.17
			c0,0-2.69,11.85-2.49,17.77c0.02,0.52-0.43,0.92-0.94,0.84c-5.4-0.83-31.55-4.62-55.29-4.08c0,0,6.05,32.09,2.42,36.93
			c-3.63,4.84-27.85,29.06-31.48,35.11c-3.32,5.53-11.19,50.49-12.52,58.2c-0.11,0.65-0.68,1.12-1.34,1.11
			c-11.66-0.21-108.33-2.58-116.3-24.2c0,0-1.82-6.05,7.26-9.08c9.08-3.03,19.98-16.95,21.19-19.37c1.21-2.42,11.5-87.18,11.5-87.18
			L833.89,742.62z"/>
		<path class="st3" d="M845.77,646.8c0,0,27.45,31.06,26.73,39.73c-0.72,8.67-21.67,20.23-25.29,25.29
			c-3.61,5.06-7.22,31.79-7.22,31.79l-26.01,2.89l3.61-70.08L845.77,646.8z"/>
		<path class="st24" d="M839.23,623.83c2.16-1.25,5.51-2.95,8.16-2.74c8.52,0.68,7.63,23.78,5.3,29.21
			c-1.3,3.04-16.06,19.97-15.63,23c0.43,3.04,0.87,14.76,0,16.06c-0.87,1.3-10.42-10.85-12.15-1.74c-1.69,8.88,3.62,9.93,9.91,9.98
			c0.29,0,0.53,0.21,0.57,0.5c0.76,5.47,7.75,54.61,15.12,61.57l1.99,3.19c0.11,0.17,0.09,0.39-0.04,0.53
			c-3.01,3.43-37.02,40.68-89.2,34.47c-54.69-6.51-47.31-11.72-47.31-11.72s38.63-35.16,41.67-43.4s29.52-59.46,31.25-64.67
			c1.74-5.21,2.6-19.97,19.97-23.44c0,0,9.55-11.72,14.76-16.06C829.11,633.99,832.93,627.46,839.23,623.83z"/>
		<path class="st13" d="M827.51,689.81c0,0,2.17,3.61,6.74,3.85"/>
		<path class="st31" d="M851.74,649.75c0,0-9.2,13.92-9.98,22.13c-0.78,8.21,1.96,14.47,0,21.52"/>
		<path class="st3" d="M701.52,894.3c0,0,10.79-1.8,19.62-6.64"/>
		<path class="st3" d="M824.81,867.94c0,0-8.26,5.3-10.72,10.92"/>
		<path class="st3" d="M907.2,729.19c0,0,7.73,21.08,4.92,32.67c-2.81,11.59-6.68,27.4-5.27,32.32"/>
		<path class="st3" d="M686.91,821.94c0,0,34.78,32.32,36.89,39"/>
		<path class="st26" d="M777.57,1019.66c0.67-0.22,23.58,15.53,34.36,19.42"/>
		<path class="st28" d="M620.83,1056.95c-3.4,7.02-4.03,14.63-2.67,21.99c-3.86,5.08-7.97,10.9-13.89,14.45
			c-14.49,8.7-29.94,3.43-31.2-1.35c-1.25-4.78,41.36-60.9,41.36-60.9l6.08,1.49c3.44,1.29,9.26,2.03,15.79,2.43
			C631.12,1042.35,624.75,1048.87,620.83,1056.95z"/>
		<path class="st3" d="M674.08,1067.04c0,0-31.27,2.05-42.13,1.82c-5.66-0.12-9.58,4.54-13.79,10.08
			c-1.36-7.36-0.73-14.97,2.67-21.99c3.92-8.08,10.29-14.6,15.47-21.89c15.24,0.92,34.32,0,35.75,0.03L674.08,1067.04z"/>
	</g>
</g>
<g>
	<path class="st32" d="M1060.64,491.78c-3.99,12.28-3.17,24.66,0.3,25.78c3.47,1.13,9.09-7.24,12.84-18.89
		c4.1-12.73,3.84-25.96,0.37-27.09S1064.63,479.5,1060.64,491.78z"/>
	<path class="st3" d="M1069.88,489l-81.73-16.4c-2.03-0.41-3.54-2.08-3.71-4.11l-8.41-102.46c-0.24-2.97,2.42-5.37,5.41-4.88
		l86.38,14.2c2.18,0.36,3.81,2.18,3.89,4.35l3.76,104.67C1075.57,487.31,1072.83,489.59,1069.88,489z"/>
	<path class="st33" d="M1160.09,309.44c0,0,11.93,66.21,10.16,79.18l-2.19,10.38c0,0,49.31-0.3,56.7-14.55l-27.99-103.52
		C1196.77,280.94,1155.37,294.29,1160.09,309.44z"/>
	<path class="st23" d="M1327.92,1043.48l-0.53,25.57l65.84,0.35c0,0,6.18-8.41,0.56-9.75c-5.62-1.33-28.9-7.95-32.4-15.95
		L1327.92,1043.48z"/>
	<polygon class="st3" points="1324.35,1016.52 1327.78,1043.88 1361.25,1043.71 1355.66,1016.99 	"/>
	
		<rect x="1178.38" y="1016.08" transform="matrix(1 2.784676e-03 -2.784676e-03 1 2.8736 -3.3226)" class="st3" width="32.44" height="28.38"/>
	<path class="st34" d="M1173.51,532.37c-0.92,6.34-2.18,15.57-3.45,26.74c-7.38,65.01-5.24,110.4-3.83,165.81
		c0.34,13.18-1.48-56.09,1.61,148.44c0.88,58.2,1.66,105.98,2.2,138.06c0.02,1.11,0.68,2.08,1.67,2.46
		c3.84,1.46,5.87,2.17,11.77,2.52c9.15,0.55,31.09,2.29,33.03-4.4c0,0,9.14-18.34,12.35-29.05c2.46-8.21-12.77,2.5-10.19-5.1
		c2.57-7.6,15.38-25.32,7.74-31.68c-7.64-6.36-8.93-1.29-8.9-10.17c0.02-8.88,3.41-309.36,11.06-305.54
		c7.65,3.83,68.57,304.14,68.04,313.36c-0.6,10.44,1.9,18.76,3.78,17.76c12.69-6.79,6.37,5.09,5.06,15.23
		c-1.14,8.87,1.64,12.9,7.48,11.24c1.49-0.42,3.04,0.49,3.36,2l5.64,26.12c8.18,1.25,15.05,1.56,20.15,1.57
		c11.63,0,9.51-0.29,14.89-0.91c5.52-0.63,7.07-1.74,6.1-7.29c-1.12-6.38-2.28-12.75-3.42-19.13c-2.18-12.23-4.36-24.46-6.54-36.69
		c-3.99-22.42-7.97-44.83-11.93-67.26c-6.56-37.12-13.08-74.25-19.52-111.4c-4.81-27.72-9.57-55.44-14.23-83.18
		c-3.25-19.35-6.47-38.71-9.54-58.08c-1.91-12.02-3.79-24.05-5.44-36.11c-0.78-5.71-1.7-11.49-1.95-17.26
		c-0.01-0.29-0.02-0.59-0.03-0.88c-0.02-1.72,0.09-12.58-2.76-26.74c-2.02-10-4.74-17.82-6.48-22.37
		c-18.3-0.01-36.91,0.15-55.82,0.5C1207.82,531.27,1190.53,531.75,1173.51,532.37z"/>
	<path class="st32" d="M1128.85,449.21c-0.79,0.26-12.69,5.02-12.51,28.58c0,0.11,0.14,0.18,0.22,0.1
		c1.69-1.67,12.69-13.11,12.83-28.41C1129.4,449.45,1128.87,449.2,1128.85,449.21z"/>
	<path class="st3" d="M1074.37,429.8c0,0,11.04-8.31,15.04-8.97c4.01-0.66,39.63,30.81,39.62,32.82c-0.01,2-4.72,17.34-8.4,19.33
		l-19.54-10.53c-2.54-1.37-4.54-3.54-5.7-6.18c-1.89-4.28-5.22-10.52-8.72-10.75c-5.34-0.35-12.36,5.97-12.36,5.97
		S1070.35,435.13,1074.37,429.8z"/>
	<path class="st35" d="M1195.81,372.43c0,0-23.15-1.71-25.81,3.57c-2.66,5.28-47.86,106.87-52.48,106.86
		c-4.62-0.01-42.24-10.69-42.24-10.69s2.13,36.18-13.34,45.54c0,0,60.71,21.31,71.28,19.35c9.99-1.85,37.65-39.21,40.54-42.57
		c0.06-0.07-0.62,7.53-0.64,7.63l-5.42,18.22c-0.05,0.18,0,0.38,0.14,0.52l4.73,4.75c0.19,0.19,0.2,0.48,0.04,0.69l-4.31,5.5
		c-0.03,0.04-0.03,0.09,0.01,0.12l2.58,2.59c0,0,71.31,8.79,110.32-3l5.14-5.11c0.39-0.39,0.26-1.05-0.25-1.26l-5.11-2.06
		c-0.2-0.08-0.26-0.33-0.12-0.5l5.57-6.65c0.5-0.59,0.75-1.35,0.71-2.12c-0.43-8.62-0.91-61.29,12.91-104.45l7.48-31.62l-51.6-17.38
		l-7.94,5.92l-42.31,11.11L1195.81,372.43z"/>
	<path class="st23" d="M1211.12,1043.7l0.99,25.55l-66.59-0.19c0,0-5.57-6.55,0.02-7.99c5.59-1.44,28.75-8.47,32.1-16.53
		L1211.12,1043.7z"/>
	<path class="st3" d="M1162.58,299.9c0,0,6.24,46.98,18.16,51.79c11.93,4.81,20.7-2.33,22.28,1.65s5.52,17.53,5.52,17.53
		l-12.74,1.56c0,0-13.6,23.84-9.63,26.24c3.97,2.4,31.83,4.86,41.4-1.48c9.57-6.34,15.99-25.43,15.99-25.43l-8.75-1.62l1.79-70.05
		l-41.32-26.38L1162.58,299.9z"/>
	<path class="st31" d="M1220.64,313.28c0,0,0.43,8.66-5.5,11.38"/>
	<path class="st27" d="M1182.46,400.55c-3.22,5.88-6.37,11.8-9.46,17.75c-2.32,4.47-4.68,8.92-6.92,13.43
		c-1.96,3.94-5.11,8.65-5.21,13.19c-0.06,2.77,2.05,5.49,3.37,7.84c1.57,2.79,3.15,5.58,4.55,8.46c3.1,6.34,5.73,13.38,5.23,20.55"
		/>
	<path class="st36" d="M1275.06,365.89c0,0,35.8,7.59,35.78,16.67c-0.03,9.09-84.83,125.41-103.01,128.03
		c-18.19,2.62-90.8-32.33-90.8-32.33s13.41-16.54,12.38-28.84l56.29,18.94c0.83,0.28,1.75-0.01,2.27-0.72
		C1196.21,456.31,1261.04,367.86,1275.06,365.89z"/>
	<path class="st27" d="M1172.57,525.62c0,0,60.08,10.15,106.41-1.92"/>
	<path class="st3" d="M1068.81,509.55c0,0-39.69-7.45-48.67-18.49c-8.98-11.04-20.59-35.1-18.92-37.1c1.67-2,14.96,22.4,18.29,23.08
		c3.34,0.68-8.94-27.06-6.26-28.05s12.94,28.07,15.61,28.08c2.67,0.01-2.93-25.04,0.07-25.36c3-0.33,6.94,24.71,8.6,26.05
		c1.66,1.34,2.33,3.68,6,4.02c3.67,0.34,31.02,6.76,31.02,6.76S1072.49,504.22,1068.81,509.55z"/>
	<path class="st26" d="M1228.48,623.97"/>
	<path class="st26" d="M1232.21,557.01"/>
	<path class="st26" d="M1228.48,623.97"/>
	<path class="st26" d="M1221.32,568.55"/>
	<path class="st26" d="M1187.45,539.13c0,0-2.22,27.36-16.72,32.68"/>
	<path class="st26" d="M1248.56,540.07c0,0,8.38,25.8,24.27,29.76"/>
	<path class="st27" d="M1185.68,468.37c0,0,7,0.93,10.68,5.69"/>
	<path class="st3" d="M1074.03,435.49c0,0,11.59-8.11,13.73-7.67"/>
	<path class="st3" d="M1074.44,441.49c0,0,9.01-5.97,12.01-5.53"/>
	
		<ellipse transform="matrix(0.7793 -0.6267 0.6267 0.7793 -36.6104 734.3779)" class="st3" cx="1024.24" cy="419.16" rx="6.1" ry="8.02"/>
	<path class="st27" d="M1116.95,483.69c0,0,3.41-0.05,8.14,5.76"/>
	<path class="st37" d="M1194.12,286.32c0.19-1.35-13.49,29.38-32.09,27.59l-2.53-0.32c-0.31-0.04-0.41-0.45-0.15-0.62
		c2.64-1.72,11.12-7.43,12.22-10.71c1.31-3.89-2.59-2.17-6.92,0.85c-4.33,3.02-6.07,5.61-12.12,3.43
		c-6.05-2.18-4.28-17.15,0.94-25.95c5.15-8.68,28.16-23.7,45.88-20.21c0.01,0,0.03,0.01,0.04,0.01l9.84,3.02
		c0.05,0.02,0.1,0.02,0.15,0.01c1.04-0.19,12.86-2.22,21.11,4.83c8.41,7.19,46.61,88.01,48.54,92.11c0.05,0.1,0.04,0.22-0.02,0.32
		c-8.43,13.81-17.57,19.81-24.62,22.7c-12.49,5.12-30.67,5.5-33.06,5.53c-0.16,0-0.29-0.1-0.33-0.26c-0.11-0.45-0.33-1.33-0.36-1.45
		c0-0.02,0-0.02-0.01-0.03c-0.1-1.01-5.46-53.56-5.47-53.64c-0.06-0.63,8.27-7.36,9.08-8.47c2.76-3.77,5.15-10.69,2.35-15.06
		c-2.32-3.61-7.5-3.11-10.74-1.14c-4.8,2.93-6.02,9.25-5.49,14.51c0.03,0.27-0.25,0.47-0.49,0.33
		C1206.64,321.89,1190.59,311.02,1194.12,286.32z"/>
</g>
<line class="st20" x1="1068.32" y1="621.32" x2="1108.44" y2="621.32"/>
<line class="st20" x1="1068.32" y1="626.63" x2="1094.33" y2="626.63"/>
<line class="st20" x1="1067.39" y1="650.21" x2="1107.5" y2="650.21"/>
<line class="st20" x1="1067.39" y1="655.52" x2="1093.39" y2="655.52"/>
</svg>
