<?xml version="1.0" encoding="utf-8"?>
<!-- Generator: Adobe Illustrator 25.0.0, SVG Export Plug-In . SVG Version: 6.00 Build 0)  -->
<svg version="1.1" id="illustration" xmlns="http://www.w3.org/2000/svg" xmlns:xlink="http://www.w3.org/1999/xlink" x="0px"
	 y="0px" viewBox="0 0 1600 1200" style="enable-background:new 0 0 1600 1200;" xml:space="preserve">
<style type="text/css">
	.st0{fill:#EDF1FC;}
	.st1{opacity:0.3;fill:#05CDCD;enable-background:new    ;}
	.st2{fill:#05CDCD;}
	.st3{fill:#FFFFFF;stroke:#000000;stroke-miterlimit:10;}
	.st4{fill:none;stroke:#000000;stroke-miterlimit:10;}
	.st5{fill:none;stroke:#020202;stroke-miterlimit:10;}
	.st6{fill:#156393;}
	.st7{opacity:0.79;fill:#F7CD66;enable-background:new    ;}
	.st8{opacity:0.79;}
	.st9{fill:#F7CD66;}
	.st10{fill:none;stroke:#070707;stroke-miterlimit:10;}
	.st11{fill:#B7D4DD;}
	.st12{fill:#6A8B9F;}
	.st13{fill:none;stroke:#6A8B9F;stroke-miterlimit:10;}
	.st14{fill:#0C0C4F;stroke:#0C0C4F;stroke-miterlimit:10;}
	.st15{fill:#FFFFFF;stroke:#000000;stroke-width:1;stroke-miterlimit:10.0005;}
	.st16{fill:#09138E;stroke:#050505;stroke-miterlimit:10;}
	.st17{stroke:#000000;stroke-miterlimit:10;}
	.st18{fill:none;stroke:#FFFFFF;stroke-miterlimit:10;}
	.st19{fill:none;stroke:#050505;stroke-miterlimit:10;}
	.st20{fill:#2C2CD1;stroke:#020202;stroke-miterlimit:10;}
	.st21{fill:#4F44FF;stroke:#020202;stroke-miterlimit:10;}
	.st22{fill:#03082B;}
	.st23{fill:#F8FCFD;stroke:#050505;stroke-miterlimit:10;enable-background:new    ;}
	.st24{fill:#F8FCFD;stroke:#000000;stroke-miterlimit:10;}
	.st25{fill:#E8BE10;}
	.st26{fill:#34436E;}
	.st27{fill:#083250;}
	.st28{fill:#FBC55A;}
	.st29{fill:#53E253;}
	.st30{fill:#AC2F27;}
	.st31{fill:#F6C058;}
	.st32{fill:#75C933;}
	.st33{fill:#2182DD;}
	.st34{fill:#F7CB63;}
	.st35{fill:none;stroke:#000000;stroke-width:1;stroke-miterlimit:9.9997;}
	.st36{fill:#D25454;}
	.st37{fill:#FFFFFF;}
	.st38{fill:#A5C1E6;}
	.st39{opacity:0.97;fill:#D5E8E8;enable-background:new    ;}
	.st40{fill:none;stroke:#FFFFFF;stroke-width:3;stroke-miterlimit:10;}
	.st41{fill:#FE6666;}
	.st42{fill:none;stroke:#050505;stroke-width:0.75;stroke-miterlimit:10;}
	.st43{fill:#FFFFFF;stroke:#050505;stroke-width:0.75;stroke-miterlimit:10;}
	.st44{fill:#FFFFFF;stroke:#020202;stroke-miterlimit:10;}
	.st45{fill:#000033;}
	.st46{fill:#FF6666;}
</style>
<g>
	<path id="background" class="st0" d="M445.78,1074.66c-118.08-77.3-200.88-241.14-209.69-382c-8.18-130.67,19.51-264.26,81-379.99
		c31.18-58.69,66.79-108.16,124.23-143.11c56.19-34.2,121.75-52.57,187.21-56.36c30.76-1.78,61.76-0.21,92.1,5.2
		c73.16,13.05,145.76,49.96,183.66,113.88c21.87,36.89,30.74,79.79,45.56,120.03s38.41,80.69,77.47,98.39
		c41.26,18.69,89.12,7.75,134.36,10.09c91.39,4.72,176.42,71.08,203.21,158.59c9.66,31.54,12.25,64.77,13.77,97.73
		c2.41,52.04,2.22,104.94-11.4,155.23c-16.09,59.43-50.04,112.19-83.5,163.88c-11.28,17.42-12.54,26.02-31.48,34.49"/>
	<g id="map">
		<path class="st1" d="M372.74,771.3l48.43,37.67c0,0,327.16-346.53,331.47-346.53s94.7,47.35,94.7,47.35l312.09-284.11
			l-63.54-45.73L842.65,417.71L746,350.06L363.24,763.74L372.74,771.3z"/>
		<polygon class="st1" points="1070.96,161.43 1185.99,245.16 1198.07,119.36 		"/>
		<path class="st2" d="M365.77,757.35l48.43,37.67c0,0,327.16-346.53,331.47-346.53s94.7,47.35,94.7,47.35l312.09-284.11
			L1088.92,166L835.68,403.77l-96.66-67.66L356.27,749.8L365.77,757.35z"/>
		<polygon class="st2" points="1063.99,147.49 1179.02,231.22 1191.09,105.42 		"/>
	</g>
	<g id="plant">
		<path class="st3" d="M231.96,1074.83l1070.67,2.17c0,0-8.67-19.51-43.35-13c-34.68,6.5-73.69-8.67-62.85-45.51
			c10.84-36.84,44.43-78.02-2.17-76.94s-145.21,106.2-159.3,104.03c-14.09-2.17-26.01-69.36-46.6-55.27
			c-20.59,14.09-28.18,56.35-41.18,50.93c-13-5.42-9.75-62.85-47.68-36.84s-53.1,32.51-50.93,2.17
			c2.17-30.34,14.09-133.29-50.93-94.28s-56.35,81.28-93.2,65.02c-36.84-16.26-44.43-78.02-78.02-67.19
			c-33.59,10.84-60.69,59.6-84.53,48.77c-23.84-10.84-76.94-72.61-107.28-63.94s-70.44,78.02-102.95,108.37
			c-32.51,30.34-72.61,58.52-72.61,58.52s7.59-21.67-2.17-13C247.13,1057.49,238.46,1072.66,231.96,1074.83z"/>
		<path class="st4" d="M434.6,894.94c0,0,43.11,126.46,27.31,179.12"/>
		<path class="st4" d="M373.27,952.94c0,0,57.92,29.84,84.25,34.23"/>
		<path class="st4" d="M368.88,961.72c0,0,61.43,34.23,91.27,37.74"/>
		<path class="st4" d="M331.65,1003.31c0,0,82.87,33.01,100.42,70.75"/>
		<path class="st4" d="M299.55,1031.05c0,0,40.37,12.29,83.37-1.76"/>
		<path class="st4" d="M411.89,1046.85c0,0,7.9-41.25,0-63.19"/>
		<path class="st4" d="M564.59,1073.18c0,0,14.92-122.87,71.97-164.99"/>
		<path class="st4" d="M675.18,949.43c0,0-39.49,54.41-94.78,56.17"/>
		<path class="st4" d="M568.1,1049.48c0,0-35.76-53.96-26.22-90.61"/>
		<path class="st4" d="M736.61,1071.42c0,0,48.27-114.97,79.86-148.32"/>
		<line class="st4" x1="850.7" y1="961.72" x2="771.71" y2="995.95"/>
		<line class="st4" x1="767.33" y1="1005.6" x2="849.82" y2="974.88"/>
		<line class="st4" x1="712.04" y1="980.15" x2="739.24" y2="1064.4"/>
		<line class="st4" x1="721.69" y1="981.03" x2="745.39" y2="1049.48"/>
		<path class="st4" d="M894.58,1073.18c0,0,6.14-52.66,24.57-73.72"/>
		<line class="st4" x1="868.25" y1="1024.91" x2="895.46" y2="1052.12"/>
		<line class="st4" x1="876.15" y1="1019.64" x2="898.09" y2="1041.58"/>
		<path class="st4" d="M1086.78,1074.06c0,0,76.35-95.66,111.46-121.11l12.29-7.9"/>
		<line class="st4" x1="1119.25" y1="981.03" x2="1119.25" y2="1031.93"/>
		<line class="st4" x1="1105.21" y1="991.56" x2="1109.6" y2="1045.09"/>
		<line class="st4" x1="1143.83" y1="1004.72" x2="1214.91" y2="968.74"/>
		<line class="st4" x1="1135.05" y1="1017.89" x2="1207.89" y2="985.42"/>
		<line class="st4" x1="1012.18" y1="1009.99" x2="989.36" y2="1042.46"/>
		<polyline class="st4" points="956.89,1035.44 988.49,1074.06 988.36,990.3 		"/>
	</g>
	<g id="box_2_1_">
		<path class="st3" d="M406.39,307.51H298.21c-6.31,0-11.47-5.16-11.47-11.47v-32.17c0-6.31,5.16-11.47,11.47-11.47h108.18
			c6.31,0,11.47,5.16,11.47,11.47v32.17C417.86,302.35,412.7,307.51,406.39,307.51z"/>
		<ellipse class="st2" cx="370" cy="310.13" rx="17.7" ry="17.05"/>
	</g>
	<g id="data_3">
		<path class="st3" d="M862.93,824.33H672.01c-5.94,0-10.75-4.81-10.75-10.75V689.53c0-5.94,4.81-10.75,10.75-10.75h190.92
			c5.94,0,10.75,4.81,10.75,10.75v124.05C873.68,819.52,868.87,824.33,862.93,824.33z"/>
		<line class="st4" x1="661.94" y1="697.06" x2="872.87" y2="697.06"/>
		<rect x="693.22" y="708.29" class="st5" width="147.57" height="45.71"/>
		<rect x="698.03" y="767.64" class="st5" width="47.32" height="42.51"/>
		<rect x="790.26" y="768.44" class="st5" width="44.11" height="42.51"/>
		<circle class="st6" cx="699.85" cy="715.5" r="2.96"/>
		<circle class="st7" cx="708.34" cy="715.5" r="2.96"/>
		<g>
			<g>
				<path class="st6" d="M706.45,740.09c5.3-2.29,10.61-4.58,15.91-6.86c2.51-1.08,5-2.21,7.54-3.23c2.39-0.96,4.97-1.76,7.57-1.29
					c7.35,1.33,11.63,9.36,19.33,9.9c3.83,0.27,7.25-1.55,10.2-3.81c2.68-2.05,5.45-5.03,8.89-5.7c4.1-0.8,7.94,2.32,11.42,3.98
					c3.55,1.69,7.3,2.23,11.1,1.03c3.91-1.23,7.23-3.69,10.55-6.01c3.29-2.29,6.78-4.69,10.92-4.88c0.53-0.02,1.56-0.41,1.63-1.04
					c0.08-0.69-0.81-0.74-1.28-0.72c-7.83,0.36-13.17,6.56-19.72,9.95c-3.46,1.8-6.81,2.04-10.41,0.41
					c-3.77-1.71-7.27-4.44-11.56-4.62c-3.89-0.17-7.24,1.78-10.21,4.09c-2.71,2.11-5.65,5.2-9.27,5.53c-3.64,0.33-6.93-2.16-9.7-4.2
					c-2.98-2.2-6-4.63-9.69-5.5c-5.67-1.33-11.18,1.6-16.23,3.78c-6.06,2.61-12.12,5.23-18.18,7.84c-0.45,0.19-1.15,0.72-0.75,1.26
					C704.91,740.53,705.97,740.29,706.45,740.09L706.45,740.09z"/>
			</g>
		</g>
		<g class="st8">
			<g>
				<path class="st9" d="M710.25,740.59c4.5-4.97,8.99-9.94,13.49-14.91c0.65-0.72,1.31-1.45,1.96-2.17
					c-0.89,0.19-1.79,0.38-2.68,0.58c4.74,4.5,9.47,9,14.21,13.5c0.68,0.65,1.37,1.3,2.05,1.95c0.62,0.59,2.18-0.12,2.68-0.58
					c5.46-4.98,10.92-9.97,16.38-14.95c0.78-0.71,1.55-1.42,2.33-2.12c-0.64,0.24-1.29,0.49-1.93,0.73
					c6.22-0.37,12.42-0.66,18.61-1.32c4.77-0.51,9.54-1.02,14.31-1.53c1.3-0.14,2.61-0.23,3.91-0.42c1.12-0.16,2.21-0.83,3.22-1.31
					c3.94-1.86,7.89-3.71,11.83-5.57c0.42-0.2,0.83-0.6,0.32-0.9c-0.52-0.31-1.57,0.11-2.04,0.33c-2.3,1.08-4.61,2.17-6.91,3.25
					c-1.58,0.75-3.17,1.49-4.75,2.24c-0.51,0.24-1.01,0.48-1.52,0.71c-0.16,0.07-0.32,0.14-0.48,0.22c-0.53,0.28,0.03-0.4,0.93-0.28
					c-0.55-0.08-1.28,0.14-1.82,0.2c-1.43,0.15-2.87,0.31-4.3,0.46c-3.65,0.39-7.31,0.78-10.96,1.17c-1.38,0.15-2.76,0.3-4.13,0.44
					c-0.38,0.04-0.76,0.08-1.14,0.12c-0.2,0.02-0.79,0.04-0.06,0.01c-2.71,0.1-5.42,0.32-8.13,0.48c-1.55,0.09-3.11,0.18-4.66,0.27
					c-1.07,0.06-2.1,0.09-2.97,0.81c-1.58,1.3-3.04,2.78-4.56,4.16c-4.71,4.3-9.42,8.6-14.13,12.9c0.89-0.19,1.79-0.38,2.68-0.58
					c-4.74-4.5-9.47-9-14.21-13.5c-0.68-0.65-1.37-1.3-2.05-1.95c-0.58-0.55-2.23,0.07-2.68,0.58c-4.5,4.97-8.99,9.94-13.49,14.91
					c-0.65,0.72-1.31,1.45-1.96,2.17c-0.45,0.5,0.39,0.62,0.72,0.62C708.95,741.32,709.82,741.08,710.25,740.59L710.25,740.59z"/>
			</g>
		</g>
		<line class="st10" x1="703.57" y1="778.2" x2="737.77" y2="778.2"/>
		<line class="st10" x1="703.57" y1="791.88" x2="737.28" y2="791.39"/>
		<line class="st10" x1="794.45" y1="778.69" x2="830.11" y2="779.18"/>
	</g>
	<g id="data_2">
		<path class="st3" d="M838.41,316.69H638.19c-3.65,0-6.6-2.96-6.6-6.6V176.16c0-3.65,2.96-6.6,6.6-6.6h200.22
			c3.65,0,6.6,2.96,6.6,6.6v133.93C845.02,313.73,842.06,316.69,838.41,316.69z"/>
		<line class="st4" x1="632.34" y1="191.8" x2="845.02" y2="191.8"/>
		<rect x="663.48" y="203.37" class="st11" width="168.19" height="15.13"/>
		<rect x="663.48" y="242.52" class="st11" width="169.08" height="17.8"/>
		<rect x="663.48" y="282.57" class="st11" width="169.97" height="16.02"/>
		<ellipse class="st12" cx="670.27" cy="210.75" rx="3.66" ry="3.88"/>
		<ellipse class="st12" cx="672.08" cy="251.03" rx="3.66" ry="3.88"/>
		<ellipse class="st12" cx="671.78" cy="290.4" rx="3.66" ry="3.88"/>
		<line class="st13" x1="680.62" y1="210.69" x2="729.68" y2="210.69"/>
		<line class="st13" x1="684.22" y1="250.97" x2="733.28" y2="250.97"/>
		<line class="st13" x1="684.53" y1="291.24" x2="733.59" y2="291.24"/>
		<line class="st4" x1="655.47" y1="169.55" x2="655.47" y2="315.49"/>
	</g>
	<g id="boy">
		<path class="st14" d="M468.44,1028.94l-0.72,47.93l86.52,3.72c0,0,9.63-9.94-24.28-22.74c0,0-16.16-2.77-20.96-23.88l-3.61-6.05
			l-34.43-2.39L468.44,1028.94z"/>
		<path class="st14" d="M581.85,1029.92l0.23,47.93l86.57,2.01c0,0,9.43-10.13-24.72-22.26c0,0-16.21-2.45-21.43-23.46l-3.72-5.98
			l-34.47-1.71L581.85,1029.92z"/>
		<path class="st3" d="M614.85,558.26l28.31,214.89l-17.17,257c0,0-23.28,12.65-46.14,0c0,0,3.22-31.58-4.29-30.49
			c-7.51,1.09,2.15-15.25,2.15-19.6c0-4.36-15.02-198.2-15.02-198.2l-9.66-42.47l-6.44-180.77
			C546.58,558.62,610.14,548.09,614.85,558.26z"/>
		<path class="st3" d="M475.96,559.43c0,0-9.25,430.37-9.25,436.98c0,6.62,8.42,3.31,6.32,7.72s-18.95,12.13-10.53,14.33
			c8.42,2.21,4.21,2.21,4.21,2.21v8.82c0,0,27.37,12.13,42.11,1.1l87.38-470.82L475.96,559.43z"/>
		<g>
			<g>
				<path class="st3" d="M401.25,655.78l94.11-0.92c3.17-0.03,5.76,2.51,5.79,5.68l0.68,69.3c0.03,3.17-2.51,5.76-5.68,5.79
					l-94.11,0.92c-3.17,0.03-5.76-2.51-5.79-5.68l-0.68-69.3C395.54,658.4,398.08,655.81,401.25,655.78z"/>
				
					<ellipse transform="matrix(1 -9.819270e-03 9.819270e-03 1 -7.1067 4.8733)" class="st15" cx="492.73" cy="726.17" rx="3.13" ry="2.96"/>
			</g>
			<circle class="st0" cx="446.23" cy="694.11" r="7.75"/>
		</g>
		<path class="st3" d="M428.12,619.69c-4.45,17.7-5.39,31.41-2.73,35.39c1.46,2.17,3.04,3.04,3.04,3.04
			c2.96,1.63,4.91-0.06,8.03,1.38c2.77,1.28,2.25,3.07,4.7,3.87c3.32,1.09,6.97-1.31,7.94-1.94c3.22-2.11,3.61-4.54,6.87-6.02
			c1.49-0.68,3.23-0.75,3.73-0.9c1.25-0.36,2.41-0.64,2.44-0.58c0.01,0.02-2.72,0.47,1.28-0.64c1.98-0.55-1.25-0.93-3.52-7.28
			c-2.27-6.36-8.64-28.58-8.64-28.58L428.12,619.69z"/>
		<path class="st3" d="M766.74,502.79c20.07-2.31,49.54-9.94,61.2-9.37c1.77,0.09,3.48,0.95,3.74,2.7c0.07,0.48,0.01,0.86-0.1,1.15
			c-1.06,2.9-7.84,1.24-15.05,4.54c-4.15,1.9-5.97,5.02-8.5,6.68c-10.21,6.68-27.16,18.01-30.86,24.04
			c-7.45-0.03-3.47,0.5-10.92,0.47L766.74,502.79z"/>
		<path class="st16" d="M530.33,351.54c0,0-58.93,16.85-61.04,21.43c-1.96,4.24-47.87,115.45-54.65,131.88
			c-0.55,1.33-0.75,2.77-0.59,4.2l12.06,109.06c0,0,17.33,3.91,25.16-1.68l6.71-116.27l26.29-49.95c0.36-0.68,1.4-0.38,1.32,0.39
			c-1.73,18.04-9.73,99.2-14.77,108.13c-0.27,0.47-0.15,1.07,0.26,1.42c4.71,4.08,29.47,23.57,64.59,16.04
			c39.13-8.39,68.76-21.8,81.06-17.89l5.71,1.43c0.48,0.12,0.94-0.28,0.89-0.77l-11.9-111.02c-0.03-0.27,0.33-0.39,0.47-0.16
			l48.75,78.16c0.86,1.38,2.3,2.28,3.91,2.45l101.42,10.91c0,0,13.42-24.04,0-39.13l-74.35-10.06l-67.82-126.82
			c-0.6-1.11-1.64-1.91-2.87-2.2l-41.23-9.56L530.33,351.54z"/>
		<path class="st3" d="M530.04,309.37l0.29,42.17c0.01,0.8,0.27,1.57,0.74,2.21c4.44,5.99,28.22,35.12,47.87,0.83
			c0.53-0.92,0.78-1.98,0.76-3.05l-0.4-23.72L530.04,309.37z"/>
		<path class="st3" d="M592.51,262.35c3.37,18.05,3.73,48.65-5.43,65.67c-12.26,22.8-43.49,7.15-53.68-11.26l-3.36-7.39
			c0,0-12.76-0.67-11.42-10.08c1.34-9.4,9.4-7.39,9.4-7.39s-1.34-44.33,14.11-51.05C557.58,234.14,585.96,227.26,592.51,262.35z"/>
		<path class="st17" d="M544.12,266.65c-0.19-0.27-0.61-0.13-0.59,0.2c0.28,6.14,1.32,35.14-4.09,35.14
			c-6.05,0-11.42-10.08-11.42-10.08l-5.99,0.72c0,0-19.54-28.26-16.18-32.29s24.18-13.43,28.21-19.48s8.73-22.17,17.46-22.17
			s17.46,15.45,18.81,17.46s18.81-13.43,22.84,2.02s16.12,5.37,10.08,20.82c-4.23,10.8-6.81,15.69-7.98,17.66
			c-0.42,0.71-1.21,1.09-2.03,0.98c-5.14-0.69-24.33-3.42-31.28-6.68c-0.12-0.06-0.22,0.11-0.11,0.19c1.91,1.5,6.42,4.91,9.6,6.31
			c0.25,0.11,0.21,0.48-0.07,0.52C567.58,278.52,553.41,279.55,544.12,266.65z"/>
		<path class="st4" d="M522.95,299.48c0,0,1.25,4.06,7.49,4.37"/>
		<path class="st18" d="M457.97,500.18c0,0-12.19,2.61-15.62,8.1"/>
		<path class="st18" d="M691.63,490.11c0,0-5,1.7-5.69,9.93"/>
		<path class="st18" d="M478.03,554.94c0,0,28.13,21.27,55.58,11.67c27.45-9.61,65.87-23.33,81.66-19.21"/>
		<path class="st18" d="M428.62,613.27c0,0,8.92,3.43,19.21,0"/>
		<path class="st18" d="M761.43,503.48c0,0,4.8,17.15-2.74,28.82"/>
		<path class="st19" d="M562.68,781.86c0,0-0.93-9.4,14.85-26.55"/>
	</g>
	<g id="client">
		<path class="st3" d="M921.97,620.67c0,0-6.26,21.92,0.23,20.78c3.99-0.7,12.04,5.28,16.2,0.45c2.1-2.44,0.87-6,0.87-6
			s2.87,9.22,4.46,7.14c1.59-2.08-7.88-23.76-7.88-23.76L921.97,620.67z"/>
		<path class="st3" d="M926.4,393.37l-6.85,225.11c-0.04,1.31,0.7,2.53,1.94,3.16c3.85,1.95,12.35,5.04,17.57-2.21l-2.3-232.46
			L926.4,393.37z"/>
		<polygon class="st17" points="1007.15,1038.01 1007.15,1074.83 920.8,1077.51 966.32,1034 1005.14,1030.65 		"/>
		<polygon class="st17" points="1121.54,1036.48 1128.41,1074.06 1047.98,1085.62 1083.04,1038.65 1119.47,1029.98 		"/>
		<path class="st20" d="M934.14,558.92l25.89,475.24c0,0,32.92,14.63,53.04,1.83l7.45-473.84l-82.98-4.2L934.14,558.92z"/>
		<path class="st21" d="M975.35,560.67l102.94,479.39c0,0,37.81,9.52,48.32-3.17c0,0-40.97-379.92-40.97-408.49
			s-5.01-82.29-5.01-82.29L975.35,560.67z"/>
		<path class="st3" d="M968.25,366.85c0,0-40.37,20.18-41.67,26.69c-1.23,6.13,3.9,147.38,4.5,163.82c0.03,0.91,0.71,1.66,1.61,1.79
			c13.34,1.94,109.24,14.86,144.95-9.35c0,0,9.12-5.86,9.12-14.32s-12.37-16.28-14.32-31.9c-1.95-15.63-3.26-132.17-4.56-134.78
			c-1.3-2.6-51.91-10.93-51.91-10.93L968.25,366.85z"/>
		<path class="st3" d="M858.22,490.96l-30.3-6.8c0,0-35.82,5.97-34.03,7.76c1.79,1.79,32.24,1.19,29.26,4.78
			c-2.99,3.58-47.76,34.63-45.97,35.82c1.79,1.19,9.55-0.6,11.94-2.39c0,0-2.99,2.99,0.6,3.58c3.58,0.6,10.75,3.58,14.93,1.79
			s37.61-11.94,37.61-11.94l20.3,1.79l1.79-32.84L858.22,490.96z"/>
		<path class="st3" d="M1012.34,307.2l3.59,50.26c0.02,0.28-0.1,0.53-0.14,0.8c-2.01,13.66-15.12,31.29-46.01,17.12
			c-0.29-0.13-0.48-0.42-0.48-0.74l-0.39-24.02L1012.34,307.2z"/>
		<path class="st3" d="M939.95,280.26c0.07,1.2,2.72,32.35,4.06,48.13c0.61,7.23,4.26,13.85,10.05,18.21
			c9.25,6.96,24.65,13.01,42.59-1.99c0,0,12.87-12.47,14.88-32.17l0.8-5.23c0,0,11.26-9.65,8.04-15.28
			c-3.22-5.63-10.86-1.61-10.86-1.61l-17.29-33.78C992.23,256.53,938.34,254.52,939.95,280.26z"/>
		<path class="st22" d="M987.81,261.12c0,0-12.95,28.42-50.75,23.77c0,0-6.76-10.77-1.93-12.62c0,0-21.32-11.61-11.26-24.15
			c10.05-12.54,23.33-4.18,23.33-4.18s-16.89-8.36-8.45-12.54c8.45-4.18,22.52-9.64,37.4,7.08c0,0,3.1,4.79,3.91,2.93
			c0.8-1.86,21.84-14.19,33.5-1.19c11.66,13.01,2.82,26.94,2.82,26.94l-0.4,22.76c0,0-4.67,0.52-7.09,3.77
			C1008.87,293.69,982.98,281.09,987.81,261.12z"/>
		<path class="st4" d="M1015.56,295.14c0,0-0.8,4.83-4.42,5.63"/>
		<path class="st3" d="M1038.65,363.69c-5.99,10.21-53.71,121.74-58.33,132.54c-0.22,0.51-0.73,0.81-1.28,0.77l-119.71-8.96
			c-0.56-0.04-1,0.46-0.88,1.01c1.19,5.45,5.95,29.67-1.55,36.02l148.49,22.12c2.72,0.41,5.41-0.9,6.78-3.29l67.88-118.64
			c1.39-2.44,1.94-5.26,1.54-8.04c-1.68-11.84-6.85-44.17-13.74-48.41c-7.48-4.6-24.11-5.65-27.88-5.83
			C1039.44,362.95,1038.93,363.22,1038.65,363.69z"/>
		<path class="st18" d="M1007.77,1024.98c0,0-21.27,4.12-11.67-4.8c9.61-8.92,17.84-10.29,15.1-17.84"/>
		<path class="st19" d="M979.05,497c0,0,4.01,0.98,8.13,8.53"/>
		<path class="st19" d="M1072.42,503.58c0,0-5.65,11.56-3.59,20.48"/>
		<path class="st19" d="M938.46,550.14c0,0,95.38,17.84,140.67-8.92"/>
		<path class="st3" d="M802.8,522.7c1.61-0.85,4.42-2.1,6.35-1.56c0.49,0.14,1.02,0.01,1.36-0.31c1.21-1.15,3.97-3.43,6.59-3.14
			c0.83,0.09,1.65-0.1,2.21-0.63c1.28-1.22,3.56-3.13,5.27-3.05c0.62,0.03,1.19-0.26,1.54-0.7c1.01-1.26,3.01-3.37,5.37-3.82
			c1.17-0.22,2.38,0.34,2.92,1.28c1.53,2.67,4.94,9.43,3.8,14.88c0,0-2.5,3.16-6.11,3.13c-0.05,0-0.09,0.01-0.12,0.04
			c-0.44,0.36-3.92,3.15-6.78,3.26c-0.13,0.01-0.25,0.05-0.34,0.13c-0.72,0.67-4.23,3.73-7.54,3.18c-0.35-0.06-0.7,0.04-0.98,0.22
			c-1.01,0.64-3.39,2.04-5.57,2.55c-1.39,0.33-2.88-0.27-3.64-1.36c-1.64-2.38-4.76-7.41-5.45-12.03
			C801.56,523.94,802,523.13,802.8,522.7z"/>
	</g>
	<g id="data_4">
		<path class="st23" d="M972.02,655.9l2.67,52.89c1.01,19.88,19.21,35.12,40.41,33.84c53.82-3.26,149.55-15.04,192.35-57.28
			c2.14-2.11,3.33-5,3.38-8.01l2-116.83c0.03-1.47-1.76-2.21-2.77-1.15c-11.02,11.54-57.56,49.35-198.48,55.67
			C988.63,616.07,970.93,634.4,972.02,655.9z"/>
		<path class="st24" d="M995.3,713.23c0,0,32.27,4.96,57.92-4.96"/>
		<path class="st24" d="M1001.1,723.15c0,0,26.33,3,47.25-3"/>
		<path class="st24" d="M1012.68,733.09c0,0,12.41,1.65,24.82-0.83"/>
		<g>
			<g>
				<path class="st25" d="M997.57,661.76c12.39-8.89,25.81-18.63,41.65-19.23c8.1-0.31,15.3,2.63,22.64,5.64
					c7.1,2.9,14.74,5.44,22.47,3.75c6.38-1.39,12.73-5.88,13.55-12.77c0.05-0.39-2.79-0.12-2.9,0.78
					c-0.77,6.45-6.83,10.93-13.04,11.3c-7.88,0.47-15.3-3.29-22.41-6.12c-3.55-1.42-7.17-2.69-10.96-3.3
					c-3.56-0.58-7.19-0.64-10.78-0.28c-7.39,0.75-14.52,3.15-21.13,6.48c-7.56,3.8-14.46,8.73-21.32,13.65
					c-0.48,0.34-0.34,0.57,0.18,0.66C996.11,662.42,997.08,662.11,997.57,661.76L997.57,661.76z"/>
			</g>
		</g>
		<g>
			<g>
				<path class="st26" d="M989.9,648.38c5.98,4.59,12.55,8.36,19.53,11.22c6.74,2.76,13.97,4.9,21.27,5.41
					c7.06,0.5,14.38-0.87,20.11-5.23c5.29-4.02,8.74-9.85,12.44-15.24c4.05-5.9,10.05-13.42,17.96-13.24
					c0.64,0.01,1.54-0.12,2.05-0.55c0.37-0.31,0.46-0.64-0.18-0.66c-6.65-0.15-12.56,3.24-17.08,7.9c-4.71,4.85-7.82,10.9-12,16.15
					c-2.04,2.56-4.35,4.97-7.13,6.73c-3.13,1.99-6.71,2.84-10.38,3c-7.37,0.32-14.9-1.76-21.77-4.28
					c-7.93-2.92-15.38-7.07-22.08-12.21C991.99,646.89,989.45,648.04,989.9,648.38L989.9,648.38z"/>
			</g>
		</g>
		<path class="st27" d="M1124.64,706.99l-10.85,3.05c-0.64,0.18-1.33-0.15-1.34-0.64l-1.87-79.3c-0.01-0.27,0.2-0.52,0.54-0.64
			l11.68-4.19c0.65-0.23,1.41,0.1,1.42,0.62l1.05,80.44C1125.27,706.62,1125.02,706.89,1124.64,706.99z"/>
		<path class="st28" d="M1144.62,700.3l-12.33,3.81c-0.65,0.2-1.35-0.16-1.35-0.68l-0.06-84.65c0-0.33,0.29-0.62,0.71-0.71
			l12.3-2.72c0.63-0.14,1.26,0.22,1.26,0.71l0.09,83.55C1145.23,699.92,1144.99,700.19,1144.62,700.3z"/>
		<path class="st29" d="M1161.4,694.13l-7.13,2.31c-0.64,0.21-1.34-0.19-1.33-0.77l0.34-68.16c0-0.39,0.33-0.72,0.78-0.8l6.93-1.23
			c0.61-0.11,1.19,0.28,1.18,0.81l-0.14,67.09C1162.03,693.7,1161.78,694.01,1161.4,694.13z"/>
		<path class="st27" d="M1193.29,605.32l-2.86,0.93c-0.17,0.05-0.35-0.05-0.35-0.2l-0.49-24.1c0-0.08,0.05-0.16,0.14-0.2l3.07-1.27
			c0.17-0.07,0.37,0.03,0.37,0.19l0.28,24.45C1193.46,605.21,1193.39,605.29,1193.29,605.32z"/>
		<path class="st30" d="M1197.92,602.89l-2.02,1.15c-0.11,0.06-0.22-0.05-0.22-0.21l-0.01-25.59c0-0.1,0.05-0.19,0.12-0.22
			l2.02-0.82c0.1-0.04,0.21,0.07,0.21,0.21l0.02,25.26C1198.02,602.77,1197.98,602.86,1197.92,602.89z"/>
		<path class="st31" d="M1202.39,600.33l-1.79,0.63c-0.16,0.06-0.34-0.05-0.34-0.21l0.09-18.75c0-0.11,0.08-0.2,0.2-0.22l1.74-0.34
			c0.15-0.03,0.3,0.08,0.3,0.22l-0.03,18.45C1202.54,600.21,1202.48,600.29,1202.39,600.33z"/>
		<g>
			<path class="st32" d="M1187.66,664.04c3.32,0.94,6.81,0.41,9.95-1.25c4.31-2.24,7.98-6.59,9.72-12.13
				c3-9.6-0.93-19.19-8.78-21.41c-7.86-2.22-16.67,3.78-19.67,13.38c-0.46,1.48-0.76,2.95-0.9,4.4
				C1177.18,655.01,1181.02,662.17,1187.66,664.04z M1182.77,646.77c0.12-1,0.32-2.03,0.64-3.05c2.13-6.81,8.16-11.1,13.46-9.6
				c5.3,1.5,7.88,8.22,5.76,15.02c-1.15,3.68-3.44,6.63-6.14,8.32c-2.29,1.43-4.88,1.97-7.32,1.28
				C1184.67,657.48,1182.13,652.44,1182.77,646.77z"/>
			<path class="st33" d="M1187.66,664.04c3.32,0.94,6.81,0.41,9.95-1.25l-1.13-5.33c-2.29,1.43-4.88,1.97-7.32,1.28
				c-4.5-1.27-7.04-6.31-6.4-11.98l-4.79,0.27C1177.18,655.01,1181.02,662.17,1187.66,664.04z"/>
		</g>
	</g>
	<g id="box1">
		<path class="st34" d="M1212.47,345.54h-82.61c-13.04,0-23.6-10.57-23.6-23.6l0,0c0-13.04,10.57-23.6,23.6-23.6h82.61
			c13.04,0,23.6,10.57,23.6,23.6l0,0C1236.07,334.97,1225.5,345.54,1212.47,345.54z"/>
		
			<rect x="1154.88" y="328.82" transform="matrix(0.5366 -0.8438 0.8438 0.5366 252.1684 1147.7234)" class="st35" width="32.42" height="30.88"/>
	</g>
	<g id="leaf_2">
		<path class="st2" d="M1151.84,937.78c6.08,1.34,12.63,1.37,18.31-1.18c24.54-10.99,29.46-53.24,45.82-72.82
			c23.2-27.78,55.28-52.42,63.01-89.73c0.58-2.79,1-5.66,0.66-8.5c-0.48-3.91-2.44-7.56-5.15-10.42
			c-6.17-6.49-15.83-8.71-24.75-7.81c-8.91,0.9-17.3,4.5-25.46,8.2c-59.16,26.78-91.79,78.97-99.53,142.7
			C1122.44,917.06,1132.56,933.54,1151.84,937.78z"/>
		<g>
			<g>
				<path class="st0" d="M1146.85,933.79c9.42-24.37,21.41-47.73,35.63-69.65c14.22-21.92,30.69-42.38,49.07-60.95
					c10.29-10.4,21.19-20.2,32.61-29.34c1.51-1.21-0.63-3.32-2.12-2.12c-20.61,16.49-39.48,35.14-56.24,55.52
					c-16.67,20.27-31.31,42.22-43.54,65.45c-6.88,13.06-12.99,26.53-18.31,40.29C1143.26,934.79,1146.16,935.57,1146.85,933.79
					L1146.85,933.79z"/>
			</g>
		</g>
		<g>
			<g>
				<path class="st0" d="M1154.36,813.03c-3.58,18.13-2.33,37.13,3.62,54.63c1.68,4.94,3.74,9.76,6.13,14.4
					c0.89,1.72,3.47,0.2,2.59-1.51c-8.16-15.83-12.03-33.74-11.27-51.53c0.22-5.1,0.83-10.18,1.82-15.19
					C1157.63,811.94,1154.74,811.13,1154.36,813.03L1154.36,813.03z"/>
			</g>
		</g>
		<g>
			<g>
				<path class="st0" d="M1166.75,797.75c-5.28,18.51-5.26,38.45-0.04,56.98c1.46,5.18,3.34,10.23,5.58,15.13
					c0.8,1.75,3.39,0.23,2.59-1.51c-7.73-16.9-10.57-35.9-8.38-54.34c0.62-5.23,1.7-10.4,3.14-15.46
					C1170.17,796.69,1167.28,795.9,1166.75,797.75L1166.75,797.75z"/>
			</g>
		</g>
		<g>
			<g>
				<path class="st0" d="M1212.66,822c15.59-0.13,31.07-4.38,44.55-12.21c3.84-2.23,7.48-4.76,10.94-7.52
					c1.51-1.2-0.63-3.31-2.12-2.12c-11.73,9.35-25.91,15.49-40.71,17.84c-4.19,0.66-8.43,0.99-12.67,1.02
					C1210.73,819.02,1210.72,822.02,1212.66,822L1212.66,822z"/>
			</g>
		</g>
		<g>
			<g>
				<path class="st0" d="M1231.61,754.51c-4.13,12.76-3.86,26.81,0.8,39.4c0.66,1.8,3.56,1.02,2.89-0.8
					c-4.49-12.13-4.78-25.5-0.8-37.8C1235.1,753.47,1232.2,752.68,1231.61,754.51L1231.61,754.51z"/>
			</g>
		</g>
		<g>
			<g>
				<path class="st0" d="M1243.01,747.75c-5.66,12.41-6.6,26.69-2.43,39.7c0.59,1.83,3.48,1.05,2.89-0.8
					c-3.91-12.21-3.2-25.71,2.13-37.39C1246.4,747.52,1243.81,745.99,1243.01,747.75L1243.01,747.75z"/>
			</g>
		</g>
	</g>
	<g id="leaf_1">
		<path class="st36" d="M299.95,763.52c-0.48,5.94-0.3,11.72,0.38,16.85c2.35,17.85,9.45,34.81,14.49,52.17
			c9.05,31.16,12.95,66.4,38.27,88.5c14.44,12.59,39.07,15.23,45.89-6.5c3.6-11.49-0.08-23.72-3.13-35.34
			c-5.36-20.43-8.75-41.3-10.13-62.29c-1.32-20.03-0.88-40.57-8.04-59.5c-6.54-17.3-33.55-49.01-56.89-34.87
			C307.15,730.78,301.22,747.69,299.95,763.52z"/>
		<g>
			<g>
				<path class="st37" d="M331.03,754.57c-0.26,22.95,2.21,45.93,7.24,68.32c5.07,22.54,12.75,44.48,22.75,65.3
					c5.69,11.84,12.15,23.31,19.32,34.33c1.05,1.61,3.65,0.11,2.59-1.51c-12.61-19.4-23.04-40.2-30.94-61.94
					c-7.77-21.38-13.17-43.65-15.89-66.23c-1.53-12.69-2.22-25.48-2.08-38.26C334.05,752.64,331.05,752.64,331.03,754.57
					L331.03,754.57z"/>
			</g>
		</g>
		<g>
			<g>
				<path class="st37" d="M337.42,784.67c8.56-16.52,17.13-33.04,25.69-49.56c0.89-1.71-1.7-3.23-2.59-1.51
					c-8.56,16.52-17.13,33.04-25.69,49.56C333.94,784.87,336.53,786.39,337.42,784.67L337.42,784.67z"/>
			</g>
		</g>
		<g>
			<g>
				<path class="st37" d="M339.27,796.19c10.12-15.36,20.24-30.71,30.37-46.07c1.07-1.62-1.53-3.12-2.59-1.51
					c-10.12,15.36-20.24,30.71-30.37,46.07C335.62,796.29,338.21,797.79,339.27,796.19L339.27,796.19z"/>
			</g>
		</g>
		<g>
			<g>
				<path class="st37" d="M322.09,849.88c8.25,2.36,16.49,4.72,24.74,7.08c1.86,0.53,2.65-2.36,0.8-2.89
					c-8.25-2.36-16.49-4.72-24.74-7.08C321.02,846.45,320.23,849.35,322.09,849.88L322.09,849.88z"/>
			</g>
		</g>
		<g>
			<g>
				<path class="st37" d="M324.1,861.13c9.23,3.46,18.47,6.91,27.7,10.37c1.81,0.68,2.59-2.22,0.8-2.89
					c-9.23-3.46-18.47-6.91-27.7-10.37C323.08,857.56,322.3,860.45,324.1,861.13L324.1,861.13z"/>
			</g>
		</g>
		<g>
			<g>
				<path class="st37" d="M363.11,889.09c8.15-17.44,16.3-34.89,24.45-52.33c0.81-1.74-1.77-3.26-2.59-1.51
					c-8.15,17.44-16.3,34.89-24.45,52.33C359.7,889.31,362.29,890.84,363.11,889.09L363.11,889.09z"/>
			</g>
		</g>
		<g>
			<g>
				<path class="st37" d="M368.2,894.57c7.46-13.93,14.92-27.87,22.39-41.8c0.91-1.7-1.68-3.22-2.59-1.51
					c-7.46,13.93-14.92,27.87-22.38,41.8C364.7,894.76,367.29,896.27,368.2,894.57L368.2,894.57z"/>
			</g>
		</g>
	</g>
	<g id="data_1">
		<path class="st38" d="M174.3,620.53c0,0-0.28-8.96,1.81-7.57c2.08,1.38,5.74,9.66,5.7,19.49c-0.04,9.83,2.39,99.7-0.06,108.45
			s-2.92,15.42-2.92,15.42L174.3,620.53z"/>
		<path class="st39" d="M174.21,620.21c0,0,3.02,132.06,4.16,135.15c1.07,2.9,26.64,48.36,168.6,45.54
			c15.71-0.31,28.38-13.42,28.76-29.75l1.53-64.42c0.42-17.59-12.55-32.43-29.44-33.69C292.32,668.91,179.26,656.11,174.21,620.21z"
			/>
		
			<ellipse transform="matrix(0.9995 -0.0307 0.0307 0.9995 -20.354 5.9187)" class="st37" cx="182.56" cy="665.78" rx="5.24" ry="26.05"/>
		<path class="st37" d="M179.27,729.11c0.01,0.01,10.86,14.56,20.26,18.35c-0.68-7.44-2.69-13.05-4.56-20.29
			c-2.45-9.47-7.99-26.06-17.74-30.16c-0.34-0.14,0.11,12.51,0.11,13.48C177.31,716,176.42,725.46,179.27,729.11z"/>
		<path class="st40" d="M224.3,695.21c0,0,56.81,25.99,135.35,18.53"/>
		<path class="st40" d="M220.63,719.71c0,0,56.81,25.99,135.35,18.53"/>
		<path class="st40" d="M216.35,747.76c0,0,56.81,25.99,135.35,18.53"/>
	</g>
	<g id="round_element">
		<g id="angle">
			<polygon class="st41" points="1379.67,162.36 1357.77,143.37 1375.58,121.88 1397.47,140.87 			"/>
			<g>
				<polyline class="st42" points="642.96,107.68 675.09,78.54 722,111.04 				"/>
				<ellipse class="st43" cx="642.96" cy="107.68" rx="2.89" ry="3.31"/>
				<ellipse class="st43" cx="675.09" cy="78.54" rx="4.45" ry="4.93"/>
				<ellipse class="st43" cx="722" cy="111.04" rx="4.12" ry="4.32"/>
			</g>
			<polygon class="st5" points="1373.49,163.94 1351.59,144.95 1369.4,123.47 1391.29,142.46 			"/>
			<polygon class="st2" points="239.81,875.67 252.71,883.33 265.62,890.98 252.07,898.57 238.51,906.16 239.16,890.92 			"/>
			<polygon class="st44" points="1388.88,447.1 1389.86,460.05 1390.83,472.99 1379.28,467.22 1367.74,461.46 1378.31,454.28 			"/>
			<ellipse class="st45" cx="441.33" cy="114.73" rx="8.26" ry="8.6"/>
			<ellipse class="st44" cx="855.24" cy="85.23" rx="5.32" ry="5.44"/>
			<ellipse class="st46" cx="186.1" cy="425.36" rx="14.81" ry="14.81"/>
			<ellipse class="st5" cx="183.88" cy="420.52" rx="14.81" ry="14.81"/>
			<polygon class="st5" points="235.84,881.2 248.75,888.85 261.65,896.51 248.1,904.09 234.55,911.68 235.2,896.44 			"/>
		</g>
		<circle class="st3" cx="720.79" cy="918.61" r="14.74"/>
	</g>
</g>
</svg>
